<svg width="28" height="28" viewBox="0 -2 25 25" fill="none" xmlns="http://www.w3.org/2000/svg">
<g clip-path="url(#clip0_114_59)">
<path d="M12.3419 9.39769C13.5565 9.09484 13.8444 7.06491 13.5541 5.90055C13.3121 4.93026 12.5547 3.88238 11.6203 4.11534C10.4056 4.41819 10.1178 6.44813 10.4081 7.61248C10.65 8.58278 11.4075 9.63065 12.3419 9.39769ZM8.7913 10.2829C9.72566 10.05 9.90253 8.76915 9.66061 7.79885C9.34611 6.53747 8.13897 4.88027 6.92431 5.18312C5.98995 5.41609 5.81308 6.69692 6.055 7.66722C6.27606 8.9519 7.4832 10.6091 8.7913 10.2829ZM15.4636 7.58873C14.249 7.89158 13.8435 9.84778 14.158 11.1092C14.3757 11.9824 14.9672 12.7625 15.8081 12.5528C17.0228 12.25 17.4283 10.2938 17.1138 9.03241C16.896 8.15915 16.2111 7.40236 15.4636 7.58873ZM8.08467 12.6234C7.77017 11.362 6.40035 9.84846 5.27912 10.128C4.4382 10.3377 4.28219 11.3041 4.49992 12.1774C4.81441 13.4388 6.18423 14.9524 7.30546 14.6728C8.14639 14.4631 8.3024 13.4967 8.08467 12.6234ZM11.0262 11.6839C9.15752 12.1498 7.4089 15.8837 7.94113 18.0184C8.18305 18.9887 8.90968 19.1167 9.65716 18.9303C10.7784 18.6508 11.4258 17.6649 12.4536 17.4086C13.3879 17.1757 14.4224 17.7422 15.4502 17.486C16.1977 17.2996 16.9902 16.8959 16.7241 15.8286C16.1919 13.6939 12.895 11.218 11.0262 11.6839Z" fill="white"/>
</g>
<defs>
<clipPath id="clip0_114_59">
<rect width="20" height="20" fill="white" transform="translate(0 5) rotate(-14)"/>
</clipPath>
</defs>
</svg>
