<svg width="296" height="82" viewBox="0 0 296 82" fill="none" xmlns="http://www.w3.org/2000/svg">
<g clip-path="url(#clip0_191_363)">
<path fill-rule="evenodd" clip-rule="evenodd" d="M143.658 10.2698C146.391 10.2698 148.643 8.01763 148.643 5.24347C148.643 2.46931 146.393 0.21875 143.658 0.21875C142.341 0.242089 141.085 0.781828 140.162 1.72175C139.238 2.66168 138.721 3.92662 138.721 5.24425C138.721 6.56189 139.238 7.82684 140.162 8.76677C141.085 9.70669 142.341 10.2464 143.658 10.2698ZM143.658 21.7654C146.391 21.7654 148.643 19.5133 148.643 16.7391C148.643 13.9665 146.393 11.7144 143.658 11.7144C142.326 11.7152 141.048 12.2449 140.106 13.187C139.164 14.1292 138.634 15.4067 138.633 16.7391C138.634 18.0718 139.163 19.3497 140.105 20.2922C141.048 21.2347 142.325 21.7646 143.658 21.7654ZM125.368 18.8714C125.369 20.2043 125.898 21.4825 126.841 22.4251C127.783 23.3676 129.061 23.8973 130.394 23.8977C131.389 23.8977 132.36 23.6029 133.187 23.0506C134.013 22.4983 134.658 21.7133 135.038 20.7949C135.419 19.8764 135.518 18.8658 135.324 17.8908C135.13 16.9158 134.651 16.0202 133.949 15.3173C133.246 14.6143 132.35 14.1356 131.375 13.9417C130.4 13.7477 129.389 13.8473 128.471 14.2277C127.553 14.6081 126.768 15.2524 126.215 16.0789C125.663 16.9055 125.368 17.8773 125.368 18.8714ZM157.086 23.2921C158.418 23.2912 159.696 22.7616 160.638 21.8194C161.58 20.8773 162.11 19.5997 162.11 18.2673C162.11 16.9343 161.581 15.6558 160.638 14.7132C159.696 13.7706 158.417 13.2411 157.084 13.2411C155.751 13.2411 154.473 13.7706 153.53 14.7132C152.587 15.6558 152.058 16.9343 152.058 18.2673C152.059 19.6003 152.589 20.8783 153.532 21.8206C154.474 22.7628 155.753 23.2921 157.086 23.2921ZM159.536 11.9573C162.268 11.9573 164.52 9.70515 164.52 6.93257C164.52 4.15841 162.268 1.90627 159.536 1.90627C158.204 1.90627 156.925 2.43575 155.983 3.37822C155.04 4.32068 154.511 5.59893 154.511 6.93178C154.511 8.26462 155.04 9.54288 155.983 10.4853C156.925 11.4278 158.204 11.9573 159.536 11.9573ZM127.74 12.1986C130.513 12.1986 132.765 9.90703 132.765 7.17229C132.764 5.83991 132.234 4.56234 131.292 3.6202C130.35 2.67807 129.073 2.14841 127.74 2.14757C126.407 2.14799 125.13 2.67747 124.187 3.61965C123.245 4.56183 122.715 5.83964 122.714 7.17229C122.714 9.90703 124.966 12.1986 127.74 12.1986ZM169.788 17.9062C168.86 17.9062 167.977 18.1459 167.212 18.6285C165.725 19.4739 164.76 21.0809 164.76 22.9309C164.76 24.7399 165.724 26.3485 167.212 27.2333C167.976 27.6749 168.86 27.9556 169.788 27.9556C172.56 27.9556 174.813 25.6641 174.813 22.9309C174.812 21.5984 174.283 20.3206 173.34 19.3784C172.398 18.4361 171.12 17.9066 169.788 17.9062ZM174.732 7.2133C171.956 7.2133 169.707 9.50486 169.707 12.238C169.707 13.5706 170.237 14.8487 171.179 15.791C172.121 16.7333 173.399 17.2627 174.732 17.2627C176.065 17.2627 177.343 16.7333 178.285 15.791C179.227 14.8487 179.757 13.5706 179.757 12.238C179.757 9.50486 177.505 7.2133 174.732 7.2133ZM167.214 30.0863C152.383 22.2874 136.704 21.7654 120.787 29.8056C120.545 29.927 120.345 30.0469 120.143 30.1273C118.615 31.3338 118.134 32.4189 118.697 33.4235C119.019 34.3477 119.821 34.4691 120.787 34.2263C121.148 34.1458 121.55 34.026 121.952 33.8651C137.146 25.7445 152.663 25.183 166.894 34.026C167.014 34.0654 167.094 34.1064 167.214 34.1458C167.898 34.4281 168.581 34.3461 169.505 33.6632C169.829 32.5372 169.545 31.654 168.862 30.9695C168.326 30.6514 167.776 30.3567 167.214 30.0863Z" fill="#CC2229"/>
<path fill-rule="evenodd" clip-rule="evenodd" d="M166.613 35.4327C154.11 27.0708 139.479 26.3059 122.594 34.7088C121.268 35.7545 120.826 36.7591 121.309 37.6438C121.711 38.8093 122.917 38.5286 124.242 38.046C137.951 30.7297 151.978 30.2061 164.845 38.2069C165.566 38.568 166.251 38.568 167.178 37.8457C167.178 37.8047 167.178 37.7653 167.214 37.7243C167.334 37.2903 167.334 36.8319 167.214 36.3979C167.092 36.0338 166.886 35.7032 166.613 35.4327ZM123.077 23.2132C123.076 22.3745 122.867 21.5492 122.466 20.8122C122.066 20.0752 121.488 19.4498 120.785 18.9928C119.973 18.4624 119.022 18.1827 118.052 18.1885C115.319 18.1885 113.026 20.439 113.026 23.2132C113.026 25.9873 115.317 28.2379 118.052 28.2379C119.057 28.2379 119.981 27.9572 120.785 27.4336C121.488 26.9763 122.066 26.3509 122.466 25.6139C122.866 24.877 123.076 24.0518 123.077 23.2132ZM117.609 12.4793C117.621 11.8118 117.499 11.1487 117.252 10.5287C117.005 9.90865 116.636 9.34409 116.168 8.86797C115.7 8.39184 115.142 8.0137 114.527 7.75561C113.911 7.49752 113.25 7.36464 112.583 7.36475C111.915 7.36485 111.254 7.49794 110.639 7.75622C110.023 8.01451 109.465 8.39283 108.997 8.8691C108.53 9.34536 108.161 9.91004 107.914 10.5302C107.667 11.1503 107.546 11.8134 107.558 12.4809C107.581 13.7983 108.121 15.0538 109.061 15.977C110.001 16.9003 111.267 17.4175 112.584 17.4173C113.902 17.4171 115.167 16.8995 116.106 15.976C117.046 15.0524 117.586 13.7967 117.609 12.4793ZM91.6021 49.0591C92.1636 46.8889 91.8828 45.4411 90.7158 44.7583C89.5503 43.752 88.3043 43.4303 86.978 43.7931C86.6972 43.9145 86.3755 44.0343 86.0538 44.1952C82.7166 47.7737 79.34 51.3112 75.9649 54.8881C72.3864 51.3096 68.9294 47.9346 65.3114 44.3545C64.0245 43.4697 62.4978 43.6716 61.4112 44.3545C61.0895 44.5564 60.8088 44.7583 60.6069 44.998C59.361 46.6855 59.2001 48.5355 60.1243 50.0243C60.5659 50.4659 60.968 50.909 61.4096 51.3506C65.067 55.3297 68.7669 59.3104 72.4653 63.2894V78.2831C73.4305 80.253 74.7158 81.2166 76.2835 81.0573C78.2943 81.0573 79.3794 80.0937 80.0623 78.5654V62.9677C82.3538 60.1935 84.6848 57.38 86.9764 54.6058C88.5456 52.759 90.0739 50.8696 91.6021 49.0591ZM109.368 43.0707C107.518 42.5866 106.153 43.1496 105.148 44.5974C104.022 45.9632 102.937 47.3715 101.85 48.7768C96.7041 55.3707 91.8402 62.2044 86.9764 69.0381C85.4482 71.2476 83.8805 73.4193 82.3128 75.632C81.8302 77.5624 82.3128 79.048 83.7591 80.0937C84.8441 80.7782 85.9292 81.0573 86.9748 80.9374C87.6092 80.8464 88.222 80.6418 88.7838 80.3334C90.5927 78.0008 92.3623 75.632 94.1712 73.2994H104.423V78.1239C105.066 80.0133 106.432 80.9784 108.562 80.9784C110.693 80.9784 111.98 79.9328 112.422 77.8021V46.1256C112.143 44.1558 111.138 43.1117 109.368 43.0707ZM101.852 65.3413C101.088 65.3413 100.284 65.3413 99.5193 65.3807C100.207 64.1449 100.987 62.9625 101.852 61.8432C102.536 60.9585 103.3 60.1147 104.104 59.2709C104.104 61.2802 104.184 63.3305 104.184 65.3003C103.378 65.3003 102.617 65.3003 101.852 65.3413ZM44.4477 43.8735C35.5243 43.8735 28.0061 50.1047 26.0773 58.4272C25.7966 59.793 25.5947 61.1997 25.5947 62.6475C25.5947 64.0953 25.795 65.5021 26.0773 66.8695C28.0077 75.2314 35.5243 81.461 44.4477 81.461C51.8838 81.461 58.3563 77.0798 61.4112 70.7697C62.6222 68.2335 63.2541 65.4597 63.2612 62.6491C63.2612 59.7551 62.5767 56.9809 61.4112 54.5301C58.3579 48.2563 51.8854 43.8735 44.4477 43.8735ZM44.4477 72.8184C38.8205 72.8184 34.2768 68.2353 34.2768 62.6475C34.2768 57.0598 38.8189 52.4783 44.4477 52.4783C50.0338 52.4783 54.617 57.0598 54.617 62.6475C54.617 68.2353 50.0354 72.8184 44.4477 72.8184Z" fill="#CC2229"/>
<path fill-rule="evenodd" clip-rule="evenodd" d="M26.0773 75.7522L20.1678 67.0685C21.133 65.9425 22.1376 64.859 23.1438 63.7724C24.6295 61.2395 25.4354 58.5474 25.1941 55.6123C24.6705 52.0338 23.505 49.3007 21.4563 47.6526C19.2452 45.4005 16.5104 44.0741 13.0549 44.1956C12.8925 44.1956 12.7726 44.235 12.6512 44.235C9.83761 44.6371 7.30633 45.4825 4.8539 47.3309C2.92351 49.0184 1.55772 51.0292 0.472656 53.9248L0.955256 77.1574C1.43786 80.2927 2.92508 81.8209 5.3365 81.7815C7.2669 81.7011 8.51283 80.616 9.11529 78.5658C9.1563 75.3106 9.23673 72.0128 9.27616 68.7182C9.07586 68.275 9.23673 67.8729 9.67833 67.6316C10.7634 67.8729 10.9637 68.6772 11.3658 69.3617C11.768 69.9231 12.2112 70.4467 12.6512 70.9703C15.2645 74.306 17.9188 77.6037 20.5699 80.8999C22.3789 81.7437 23.9876 81.6238 25.3534 80.4977C25.6357 80.1366 25.9164 79.7738 26.0773 79.3717C26.6403 78.2456 26.7601 77.1195 26.1577 75.8736C26.1577 75.8326 26.1167 75.7916 26.0773 75.7522ZM12.6496 60.7191C10.2792 60.7191 8.38982 58.8297 8.38982 56.4971C8.38982 54.1645 10.2792 52.2357 12.6496 52.2357C14.9822 52.2357 16.8716 54.1661 16.8716 56.4971C16.8716 58.8281 14.9822 60.7191 12.6496 60.7191ZM256.053 42.9906C253.845 42.9906 252.276 44.0363 251.833 46.6085V77.4003C252.517 79.8921 254.044 80.616 255.893 80.5766C257.903 80.5372 259.592 79.7723 260.595 77.3608V46.4477C259.952 44.0363 258.465 42.8692 256.053 42.9906ZM291.39 42.7478C289.419 42.8298 288.214 43.8328 287.612 45.4415V63.8118C283.633 57.2194 279.652 50.5861 275.673 44.0347C274.345 42.7083 272.537 42.3866 270.205 43.1105C268.476 43.713 267.393 44.9179 266.909 46.7268V77.4791C266.989 79.4884 268.357 80.4126 271.009 80.3337C273.1 80.1728 274.386 79.2092 274.909 77.4791C274.87 71.0886 274.87 64.6555 274.829 58.2635C278.729 64.9277 282.615 71.6005 286.486 78.2819C287.37 79.6492 288.697 80.493 291.069 80.1318C293.28 80.0514 294.688 78.8465 295.532 76.8357V45.5219C294.767 43.6341 293.359 42.7099 291.39 42.7478ZM241.985 43.0711C240.014 43.1499 238.809 44.1561 238.207 45.7632V64.1335C234.228 57.5412 230.247 50.9078 226.268 44.3548C224.981 43.0285 223.132 42.7083 220.8 43.4306C219.112 44.0347 217.988 45.2396 217.504 47.0486V77.8403C217.584 79.8117 218.952 80.7343 221.644 80.6539C223.696 80.493 224.979 79.5278 225.503 77.8403C225.464 71.4088 225.463 64.9773 225.422 58.5852L237.122 78.6036C237.965 79.9694 239.29 80.8132 241.662 80.4536C243.914 80.3731 245.282 79.1682 246.125 77.1558V45.8421C245.36 43.9558 243.993 43.0301 241.985 43.0711ZM178.189 68.5163C175.737 70.9278 173.325 72.3345 171.034 72.6563C167.938 73.0584 165.527 72.5364 163.918 71.0476C161.749 69.439 160.341 67.4691 159.697 65.0987C159.174 62.968 159.213 60.7585 159.817 58.4275C160.541 56.2952 161.909 54.6487 163.918 53.4422C165.689 52.2767 167.697 51.8336 169.868 51.7941C172.641 51.914 174.932 53.2814 176.943 54.8506C178.992 56.2968 180.64 56.2968 182.492 54.931C183.775 53.2025 184.14 51.433 182.692 49.2628C182.208 48.4585 179.716 43.4338 169.345 43.2335C158.974 42.9922 150.53 51.6348 150.53 62.006C150.53 72.3756 158.974 80.8179 169.345 80.8179C179.716 80.8179 182.288 75.8736 183.416 73.9858C184.179 72.0964 184.017 70.5287 182.892 69.3617C181.648 68.1552 180.2 67.712 178.189 68.5163ZM196.56 48.7787C195.483 47.3682 194.384 45.9749 193.263 44.5993C192.259 43.1515 190.891 42.59 189.043 43.0726C187.272 43.1121 186.228 44.1577 185.987 46.1275V77.804C186.39 79.9347 187.674 80.9803 189.803 80.9803C191.975 80.9803 193.342 80.0167 193.986 78.1257V73.3013H204.237C206.044 75.6339 207.814 78.0027 209.621 80.3353C211.273 81.2201 212.96 81.1412 214.649 80.0956C216.097 79.0499 216.578 77.5643 216.097 75.6339C209.664 66.6269 203.352 57.5427 196.56 48.7787ZM196.56 65.3416C195.796 65.3022 194.992 65.3022 194.227 65.3022C194.227 63.3323 194.307 61.2821 194.307 59.2728C195.112 60.1166 195.875 60.9604 196.56 61.8451C197.403 62.9302 198.168 64.0972 198.892 65.3826C198.088 65.3416 197.323 65.3416 196.56 65.3416ZM135.539 72.4544H125.811V46.2048C125.692 42.0649 117.61 42.1043 117.61 46.2048V78.0437C117.732 79.3701 118.213 80.094 119.098 80.2138H135.539C139.759 80.1334 139.84 72.2951 135.539 72.4544Z" fill="#CC2229"/>
</g>
<defs>
<clipPath id="clip0_191_363">
<rect width="296" height="82" fill="white"/>
</clipPath>
</defs>
</svg>
