<svg width="284" height="124" viewBox="0 0 284 124" fill="none" xmlns="http://www.w3.org/2000/svg">
<path fill-rule="evenodd" clip-rule="evenodd" d="M191.592 17.6214C174.76 17.6214 159.588 12.5861 141.889 8.12733C124.694 3.81197 108.656 0 88.9333 0C53.6053 0 27.3808 8.05565 0 19.7082V124C36.4108 108.175 61.1899 103.213 88.9333 103.213C107.284 103.213 123.394 107.17 138.928 110.982C155.903 115.083 171.871 119.038 191.592 119.038C229.595 119.038 249.677 111.126 272 101.776V0.645151C239.924 13.7362 225.403 17.6214 191.592 17.6214Z" fill="white"/>
<path fill-rule="evenodd" clip-rule="evenodd" d="M192.69 21.6109C174.864 21.6109 159.066 16.292 141.819 11.9776C124.861 7.73647 108.992 4 89.7863 4C54.0608 4 28.1174 12.4807 5 22.2573V117C34.4951 104.491 59.205 98.3097 89.7863 98.3097C108.702 98.3097 125.078 102.336 140.949 106.217C157.689 110.315 173.488 114.125 192.69 114.125C229.937 114.125 249.434 106.432 269 98.3813V6.65867C242.622 17.2265 227.403 21.6109 192.69 21.6109Z" fill="#CC2229"/>
<path fill-rule="evenodd" clip-rule="evenodd" d="M141.613 99.2733C125.393 95.341 108.597 91.1901 88.8311 91.1901C54.4412 91.1901 28.5215 99.4143 11 106.426V26.8812C30.6198 18.8693 55.1646 11 88.8311 11C107.222 11 122.787 14.72 139.222 18.7251C155.441 22.6606 172.165 28.4544 191.713 28.4544C227.119 28.4544 244.351 23.1612 261 16.7225V93.481C245.942 99.5616 227.047 107 191.713 107C173.324 107 157.902 103.207 141.613 99.2733Z" fill="#FADE2F"/>
<path d="M141.613 99.2733C125.393 95.341 108.597 91.1901 88.8311 91.1901C54.4412 91.1901 28.5215 99.4143 11 106.426V26.8812C30.6198 18.8693 55.1646 11 88.8311 11C107.222 11 122.787 14.72 139.222 18.7251C155.441 22.6606 172.165 28.4544 191.713 28.4544C227.119 28.4544 244.351 23.1612 261 16.7225V93.481C245.942 99.5616 227.047 107 191.713 107C173.324 107 157.902 103.207 141.613 99.2733V99.2733Z" stroke="#FADE2F" stroke-width="1.62122" stroke-miterlimit="2.613"/>
<path fill-rule="evenodd" clip-rule="evenodd" d="M59.2174 46.3156C59.5785 43.8213 58.9282 42.5379 58.2059 41.8969V41.8259C62.5426 41.256 67.5296 40.5425 72.4447 40.2567C72.3009 41.5402 72.0117 43.7487 72.0117 43.7487H72.0836C74.3974 39.8289 78.0821 39.2574 78.9498 39.1864C79.8175 39.0539 80.7037 39.1028 81.5511 39.3301L80.2504 49.7365H80.1785C79.3828 49.3797 78.8043 49.3087 77.7929 49.4507C74.8288 49.8075 71.5755 52.5859 71.1425 55.8648L69.046 72.7578C68.7568 74.8274 69.6245 76.3934 70.6359 77.1054V77.1796C65.7208 77.5348 56.2533 78.8877 53 79.5286V79.4576C54.085 78.6746 55.4576 76.7502 55.6749 74.5401L59.2174 46.3156ZM84.7325 44.2475C84.9498 42.6073 84.8044 40.6119 83.8649 39.6837V39.6142C88.0577 39.5432 94.7801 39.5432 98.6102 39.8984L94.5628 71.9038C94.3454 73.615 94.9958 75.4684 96.1527 76.4645V76.5387C91.5268 76.2514 84.5887 76.3224 78.5167 76.6097V76.5387C79.5282 75.6815 80.9008 74.7564 81.2635 71.9748L84.7325 44.2475ZM92.6836 37.4057C96.5138 37.4057 99.7671 34.8404 99.9828 31.7021C100.127 28.5669 97.1641 26 93.3324 26C89.5006 26 86.2489 28.5669 86.0316 31.7021C85.8878 34.8388 88.8519 37.4057 92.6836 37.4057ZM117.981 41.4691C123.112 42.3247 125.353 43.6776 126.366 43.8213C127.305 43.9634 128.245 43.9634 128.606 43.8923L127.377 53.3737H127.305C126.655 52.518 123.186 49.2392 118.125 48.311C115.163 47.7411 113.282 48.7388 113.282 50.308C113.282 52.5875 115.594 53.3011 120.076 56.3668C125.281 59.9314 127.81 62.4967 127.81 67.0589C127.81 78.1773 117.547 80.2469 111.98 79.3187C105.62 78.3194 104.318 77.2522 100.849 76.8955C99.9812 76.7534 99.3309 76.8954 98.7524 76.9665L100.053 66.489H100.197C100.993 67.8419 104.679 71.4775 110.532 72.1185C113.857 72.5463 116.387 71.9764 116.387 69.4111C116.387 67.5578 115.882 67.3415 108.581 62.9245C103.738 60.0024 101.787 57.2224 101.787 52.518C101.79 44.9611 108.945 39.971 117.981 41.4691ZM238.399 63.1376C233.845 61.0696 231.607 60.2139 231.607 57.7907C231.607 56.01 233.412 54.7976 236.376 54.3698C241.219 53.7289 245.049 56.1521 245.701 57.0061L245.773 56.9351L247 46.6013C246.64 46.7434 245.702 46.8854 244.763 47.0986C243.676 47.3133 240.353 46.4576 235.581 47.4553C225.536 49.5234 220.042 54.7976 220.114 61.4263C220.186 66.4164 221.993 69.0528 226.98 71.4049C233.993 74.7564 234.714 75.2537 234.714 77.2506C234.714 79.958 232.186 81.3851 228.859 81.8113C223.08 82.5975 218.45 78.9619 217.658 77.7511H217.583C216.138 79.3171 209.996 84.3798 203.922 85.1628C199.731 85.6617 196.551 82.4523 196.623 75.8946L217.15 69.91C217.441 68.7686 217.369 67.2705 217.441 66.1291C217.441 60.0718 214.838 52.1597 202.117 53.1574C193.515 53.8694 183.179 62.4225 183.179 77.3217C183.179 92.9329 194.597 93.5738 200.886 92.7877C208.189 91.8626 213.898 89.01 216.282 87.2987C220.62 89.081 225.031 90.0803 230.307 89.152C237.822 87.8702 246.351 85.4454 246.423 74.327C246.493 69.4806 244.472 65.9176 238.399 63.1376ZM205.079 66.6295L196.984 68.9817C197.777 64.5631 199.584 59.9298 202.478 59.573C205.658 59.1452 205.295 65.204 205.079 66.6295ZM176.311 51.8045C180.139 52.0176 183.177 49.667 183.177 46.4576C183.105 43.2498 179.997 40.4714 176.239 40.2567C172.407 40.0436 169.298 42.3958 169.37 45.602C169.371 48.8098 172.479 51.5188 176.311 51.8045Z" fill="#CC2229"/>
<path fill-rule="evenodd" clip-rule="evenodd" d="M177.823 86.3754L181.804 54.6416C177.172 54.2846 168.847 53.3591 167.257 52.9311L167.185 53.0021C168.198 54.1425 168.342 56.1405 168.126 57.7799L164.65 84.5938C164.434 86.377 163.494 87.5189 163.204 87.4479C162.913 87.4479 161.902 86.1654 161.538 84.0237L158.138 70.1168C157.633 67.1917 155.676 63.6996 151.26 62.6287C149.886 62.2718 147.932 62.0601 147.282 62.2007L147.21 62.1296C147.716 61.5595 151.26 57.066 154.879 57.9931C157.342 58.6344 159.151 60.4886 159.585 60.9877H159.657L165.519 54.212C162.697 51.5017 160.817 50.7183 158.86 50.2903C153.722 49.0078 149.092 52.2866 145.906 55.9241L149.015 31.8204L134.108 28.183V28.2541C135.121 29.4671 135.917 31.2487 135.628 33.3872L130.199 76.7457C129.837 79.5286 128.535 80.1699 127.522 80.8111V80.8822C132.153 82.0241 144.458 85.0187 144.458 85.0187L144.53 84.8734C143.37 83.6635 142.718 81.5945 142.937 79.8113L144.458 67.7587H144.602C145.543 67.9751 146.049 69.613 146.121 70.5417L148.22 81.236C148.726 84.1642 151.186 86.4433 152.852 86.8714C160.958 88.7967 172.177 90.722 179.343 91.2953V91.2211C178.259 90.0839 177.609 88.1586 177.823 86.3754ZM57.1746 22.9772C47.3314 25.3306 43.7121 27.9698 28.3696 31.6072V31.6767C29.5264 32.2485 30.5393 33.8168 30.2513 36.3123L25.184 81.8125C24.968 84.0916 23.3744 86.2333 22 87.3041L22.072 87.4463C28.7296 85.0929 36.3297 82.8091 42.1921 81.5976V81.5266C40.6001 80.8143 39.6593 78.6015 39.8033 76.9636L42.7697 52.5015C42.7697 52.5015 47.6194 51.4322 50.949 51.0042C52.469 50.8604 53.917 50.9331 54.2786 51.4322H54.3506L55.509 41.804C50.5138 42.589 46.2449 43.445 43.7841 44.0152L44.8689 35.7422C48.9954 34.4581 52.2514 33.1045 56.2322 32.1758C60.0674 31.2503 63.1811 32.3906 63.9763 33.4599H64.0483L70.3459 23.4747C67.2355 20.9098 59.997 22.336 57.1746 22.9772ZM278.934 98C276.112 98 273.869 95.792 273.869 93.009C273.869 90.2261 276.112 88.018 278.934 88.018C281.757 88.018 284 90.2261 284 93.009C284 95.792 281.757 98 278.934 98V97.2166C281.25 97.2166 283.131 95.3624 283.131 93.009C283.131 90.6557 281.25 88.8725 278.934 88.8725C276.619 88.8725 274.662 90.6557 274.662 93.009C274.662 95.3624 276.619 97.2166 278.934 97.2166V98Z" fill="#CC2229"/>
<path fill-rule="evenodd" clip-rule="evenodd" d="M277.811 96H277V91H279.102C280.319 91 280.933 91.2556 280.933 92.2809C280.933 93.3715 280.186 93.6257 279.577 93.6257L281 96H280.051L278.763 93.6924H277.811V92.9213H279.102C279.711 92.9213 280.118 92.8574 280.118 92.2809C280.118 91.8321 279.778 91.7043 279.102 91.7043H277.811V96Z" fill="#CC2229"/>
</svg>
