<svg width="307" height="129" viewBox="0 0 307 129" fill="none" xmlns="http://www.w3.org/2000/svg">
<g clip-path="url(#clip0_191_378)">
<path fill-rule="evenodd" clip-rule="evenodd" d="M201.399 35.0132C201.399 29.2204 206.975 29.2204 206.975 29.2204H211.548V25.8606H183.666V29.2204H188.24C188.24 29.2204 194.15 29.2204 194.15 35.0132V101.406L131.586 25.8589H113.071V29.2187H117.645C117.645 29.2187 123.221 29.2187 123.221 35.0115V107.195C123.221 112.991 117.645 112.991 117.645 112.991H113.071V116.349H141.511V112.991H136.937C136.937 112.991 131.361 112.991 131.361 107.195V42.428L192.701 116.351H201.287L201.399 35.0132ZM296.867 96.4204C296.867 96.4204 296.422 110.557 288.055 110.327H250.139V69.6559H285.49C291.066 69.6559 291.066 75.4487 291.066 75.4487V80.2005H294.302V54.247H291.066V58.8813C291.066 58.8813 291.066 64.6741 285.49 64.6741H250.139V31.4199H284.487C292.854 31.0724 293.298 43.239 293.298 43.239H296.534V30.4948C296.534 24.932 290.845 25.6289 290.845 25.6289H228.39V29.2204H232.961C232.961 29.2204 238.536 29.2204 238.536 35.0132V107.197C238.536 112.993 232.961 112.993 232.961 112.993H228.39V116.351H294.3C294.3 116.351 299.989 116.7 299.989 111.253V96.4221H296.867V96.4204ZM298.762 26.554C298.762 24.2369 300.658 22.499 302.775 22.499C305.007 22.499 306.904 24.2369 306.904 26.554C306.906 27.1177 306.8 27.6761 306.593 28.1971C306.386 28.7181 306.082 29.1914 305.698 29.59C305.314 29.9885 304.858 30.3042 304.357 30.5192C303.855 30.7341 303.318 30.844 302.775 30.8424C300.658 30.8424 298.762 28.987 298.762 26.554Z" fill="black"/>
<path fill-rule="evenodd" clip-rule="evenodd" d="M302.775 30.1452C304.671 30.1452 306.122 28.6391 306.122 26.5537C306.122 24.5841 304.671 23.1938 302.775 23.1938C300.991 23.1938 299.543 24.5841 299.543 26.5537C299.545 28.6391 300.991 30.1452 302.775 30.1452Z" fill="white"/>
<path fill-rule="evenodd" clip-rule="evenodd" d="M301.998 28.9869H301.329V24.2368H303.001C304.116 24.2368 304.674 24.5844 304.674 25.6271C304.674 26.4381 304.116 26.7856 303.447 26.9015L304.786 28.9869H304.003L302.777 26.9015H301.998V28.9869Z" fill="black"/>
<path fill-rule="evenodd" clip-rule="evenodd" d="M302.775 26.3221C303.444 26.3221 303.894 26.3221 303.894 25.5111C303.894 24.9318 303.446 24.8159 302.888 24.8159H301.998V26.3221H302.775Z" fill="white"/>
<path fill-rule="evenodd" clip-rule="evenodd" d="M226.606 69.4239L221.586 61.7774L217.012 69.4239L221.586 77.1863L226.606 69.4239ZM118.76 69.4239L113.74 61.7774L109.168 69.4239L113.74 77.1863L118.76 69.4239ZM0.0957031 125.505V128.983H301.327V125.505H0.0957031ZM113.853 6.85645H0.0957031V10.3321H113.853V6.85645ZM181.884 6.85645V10.3321H301.327V6.85645H181.884ZM1.43552 80.3144C8.68395 123.418 49.9492 119.249 49.9492 119.249C111.958 113.572 103.035 59.2286 103.035 59.2286C98.6859 17.7486 51.7334 21.1085 51.7334 21.1085C-8.93696 28.9867 1.43552 80.3144 1.43552 80.3144Z" fill="black"/>
<path fill-rule="evenodd" clip-rule="evenodd" d="M90.8781 61.5457C95.3403 113.105 49.9491 111.369 49.9491 111.369C16.4915 109.861 13.4806 74.5216 13.4806 74.5216C10.6911 30.8422 52.96 28.5233 52.96 28.5233C88.5363 28.0599 90.8781 61.5457 90.8781 61.5457Z" fill="white"/>
<path fill-rule="evenodd" clip-rule="evenodd" d="M247.348 120.406C247.459 120.172 247.684 119.944 248.241 119.944C248.911 119.944 249.468 120.406 249.468 121.564C249.468 122.377 249.132 123.188 248.241 123.188C247.905 123.188 247.572 123.072 247.348 122.723V123.188H246.565V118.898H247.348V120.406Z" fill="black"/>
<path fill-rule="evenodd" clip-rule="evenodd" d="M248.018 120.639C247.461 120.639 247.349 121.101 247.349 121.68C247.349 122.142 247.461 122.609 248.018 122.609C248.576 122.609 248.687 122.026 248.687 121.564C248.687 121.103 248.463 120.639 248.018 120.639Z" fill="white"/>
<path fill-rule="evenodd" clip-rule="evenodd" d="M249.802 120.06H250.585V120.522C250.809 120.288 250.918 119.942 251.367 119.942H251.588V120.752H251.367C250.698 120.752 250.585 121.217 250.585 121.564V123.188H249.802V120.06ZM254.263 122.493C254.263 122.955 254.375 122.955 254.488 123.072V123.188H253.594C253.482 122.955 253.482 122.955 253.482 122.723C253.371 122.956 253.038 123.188 252.48 123.188C252.036 123.188 251.587 122.955 251.587 122.375C251.587 121.68 251.923 121.447 252.48 121.334L253.15 121.218C253.371 121.218 253.482 121.103 253.482 120.985C253.482 120.639 253.15 120.639 252.925 120.639C252.592 120.639 252.48 120.869 252.48 120.985H251.698C251.81 120.06 252.48 119.944 253.036 119.944C253.481 119.944 254.263 120.06 254.263 120.869V122.493Z" fill="black"/>
<path fill-rule="evenodd" clip-rule="evenodd" d="M253.483 121.564C253.371 121.68 253.261 121.798 252.925 121.798C252.592 121.798 252.367 121.914 252.367 122.26C252.367 122.609 252.592 122.609 252.812 122.609C253.148 122.609 253.481 122.375 253.481 122.026V121.564H253.483Z" fill="white"/>
<path fill-rule="evenodd" clip-rule="evenodd" d="M257.499 123.188H256.716V121.218C256.716 120.985 256.716 120.639 256.159 120.639C255.823 120.639 255.49 120.869 255.49 121.334V123.188H254.708V120.06H255.49V120.522C255.563 120.342 255.688 120.19 255.847 120.087C256.007 119.983 256.193 119.933 256.38 119.942C257.049 119.942 257.499 120.288 257.499 120.983V123.188ZM260.731 123.188H259.952V122.723C259.727 123.072 259.394 123.188 259.058 123.188C258.168 123.188 257.832 122.375 257.832 121.564C257.832 120.406 258.389 119.944 259.058 119.944C259.616 119.944 259.84 120.174 259.952 120.406V118.898H260.731V123.188Z" fill="black"/>
<path fill-rule="evenodd" clip-rule="evenodd" d="M259.283 122.609C259.84 122.609 259.952 122.144 259.952 121.68C259.952 121.101 259.84 120.639 259.283 120.639C258.835 120.639 258.614 121.101 258.614 121.564C258.614 122.028 258.725 122.609 259.283 122.609Z" fill="white"/>
<path fill-rule="evenodd" clip-rule="evenodd" d="M262.627 118.9H264.411C265.862 118.9 266.085 120.174 266.085 120.987C266.085 121.8 265.749 123.19 264.411 123.19H262.627V118.9Z" fill="black"/>
<path fill-rule="evenodd" clip-rule="evenodd" d="M263.521 122.377H264.303C264.972 122.377 265.193 121.682 265.193 120.987C265.193 119.713 264.636 119.597 264.303 119.597H263.521V122.377Z" fill="white"/>
<path fill-rule="evenodd" clip-rule="evenodd" d="M268.315 118.786C268.873 118.786 270.324 119.016 270.324 120.985C270.324 123.072 268.873 123.301 268.315 123.301C267.758 123.301 266.31 123.071 266.31 120.985C266.31 119.016 267.758 118.786 268.315 118.786Z" fill="black"/>
<path fill-rule="evenodd" clip-rule="evenodd" d="M268.316 122.493C268.763 122.493 269.431 122.259 269.431 120.985C269.431 119.826 268.765 119.595 268.316 119.595C267.871 119.595 267.2 119.828 267.2 120.985C267.2 122.259 267.87 122.493 268.316 122.493Z" fill="white"/>
<path fill-rule="evenodd" clip-rule="evenodd" d="M272.665 120.869H274.337V123.188H273.78L273.671 122.609C273.447 122.839 273.111 123.301 272.445 123.301C271.44 123.301 270.549 122.491 270.549 120.985C270.549 119.944 271.107 118.786 272.555 118.786C273.781 118.786 274.229 119.595 274.339 120.173H273.448C273.448 120.06 273.224 119.477 272.555 119.477C271.997 119.477 271.44 119.943 271.44 121.101C271.44 122.26 271.997 122.491 272.555 122.491C272.779 122.491 273.448 122.491 273.56 121.563H272.666V120.869H272.665ZM277.127 123.188H276.233V118.9H279.134V119.711H277.127V120.639H278.911V121.334H277.127V123.188ZM281.251 118.786C281.809 118.786 283.26 119.016 283.26 120.985C283.26 123.072 281.809 123.301 281.251 123.301C280.807 123.301 279.355 123.071 279.355 120.985C279.355 119.016 280.807 118.786 281.251 118.786Z" fill="black"/>
<path fill-rule="evenodd" clip-rule="evenodd" d="M281.251 122.493C281.809 122.493 282.366 122.259 282.366 120.985C282.366 119.826 281.809 119.595 281.251 119.595C280.807 119.595 280.136 119.828 280.136 120.985C280.138 122.259 280.807 122.493 281.251 122.493Z" fill="white"/>
<path fill-rule="evenodd" clip-rule="evenodd" d="M285.489 118.786C286.046 118.786 287.498 119.016 287.498 120.985C287.498 123.072 286.046 123.301 285.489 123.301C284.931 123.301 283.483 123.071 283.483 120.985C283.485 119.016 284.931 118.786 285.489 118.786Z" fill="black"/>
<path fill-rule="evenodd" clip-rule="evenodd" d="M285.489 122.493C285.936 122.493 286.607 122.259 286.607 120.985C286.607 119.826 285.938 119.595 285.489 119.595C285.044 119.595 284.374 119.828 284.374 120.985C284.375 122.259 285.044 122.493 285.489 122.493Z" fill="white"/>
<path fill-rule="evenodd" clip-rule="evenodd" d="M287.942 118.9H289.729C291.064 118.9 291.402 120.174 291.402 120.987C291.402 121.8 291.066 123.19 289.729 123.19H287.942V118.9Z" fill="black"/>
<path fill-rule="evenodd" clip-rule="evenodd" d="M288.724 122.377H289.618C290.287 122.377 290.509 121.682 290.509 120.987C290.509 119.713 289.951 119.597 289.618 119.597H288.724V122.377Z" fill="white"/>
<path fill-rule="evenodd" clip-rule="evenodd" d="M118.426 16.936V16.2409C119.429 16.125 119.875 16.125 119.987 16.0091C120.098 16.0091 120.21 15.8933 120.321 15.7774C120.433 15.5457 120.656 14.6189 120.99 12.9969C120.99 12.5352 121.325 10.4481 121.994 6.6248C122.44 3.72839 122.663 2.10641 122.663 1.75884C122.663 1.41127 122.663 1.29541 122.44 1.17956C122.217 1.0637 121.659 0.947843 120.656 0.947843V0.252705C120.656 0.252705 121.325 0.368562 122.33 0.368562H125.564C126.568 0.368562 127.238 0.252705 127.573 0.252705C128.688 0.252705 129.469 0.484422 130.026 0.716135C130.584 0.947847 131.03 1.29541 131.364 1.87469C131.699 2.45397 131.811 3.14911 131.811 3.84425C131.811 4.65524 131.699 5.35038 131.364 6.16137C131.141 6.85651 130.695 7.55165 130.249 8.13093C129.803 8.71021 129.246 9.05778 128.688 9.40535C128.019 9.75292 127.238 9.98462 126.458 9.98462C126.012 9.98462 125.677 9.86878 125.343 9.86878C124.989 9.76348 124.651 9.6075 124.339 9.40535V8.59435C124.897 8.94192 125.454 9.17363 126.013 9.17363C126.683 9.17363 127.352 8.94192 127.909 8.59435C128.467 8.24678 128.913 7.6675 129.247 6.85651C129.614 6.10223 129.805 5.26875 129.805 4.42353C129.805 3.72839 129.693 3.14911 129.47 2.68569C129.247 2.22226 128.913 1.87469 128.355 1.52712C127.798 1.29541 127.24 1.17956 126.459 1.17956C126.013 1.17956 125.456 1.29541 124.675 1.41127L124.006 5.69795L122.891 11.7225C122.668 13.5762 122.445 14.6189 122.445 14.9664V15.4299C122.445 15.6616 122.445 15.7774 122.556 15.8933C122.668 16.0091 122.78 16.125 123.114 16.125C123.337 16.2409 123.896 16.2409 124.675 16.2409V16.936C123.56 16.936 122.556 16.8201 121.887 16.8201C121.659 16.8201 120.544 16.936 118.426 16.936ZM132.478 8.13093L132.255 7.6675C132.924 7.08822 133.816 6.50894 134.931 5.92966C135.377 5.58209 135.823 5.46624 136.046 5.46624C136.158 5.46624 136.269 5.58209 136.381 5.69795C136.493 5.81381 136.493 5.92966 136.493 6.16137C136.493 6.27723 136.493 6.6248 136.381 7.20408C135.266 11.6066 134.82 14.2713 134.82 15.084V15.4316C134.931 15.5474 135.043 15.5474 135.154 15.5474C135.266 15.5474 135.377 15.4316 135.6 15.3157C136.158 15.084 136.827 14.5047 137.496 13.8096C138.165 13.1144 138.723 12.3034 139.28 11.2607C139.725 10.6815 139.949 10.1005 140.172 9.29119C140.507 8.4802 140.73 7.32164 140.953 5.93136C141.176 5.93136 141.735 5.81551 142.514 5.5838L142.737 5.69965L142.068 7.90092C141.845 8.94363 141.511 10.218 141.288 11.4925C140.953 12.7669 140.73 13.6937 140.73 14.273C140.73 14.5047 140.619 14.7364 140.619 14.9681C140.619 15.1999 140.73 15.3157 140.73 15.4316C140.842 15.5474 140.953 15.5474 141.065 15.5474C141.176 15.5474 141.288 15.5474 141.399 15.4316C141.622 15.3157 142.068 14.9682 142.849 14.3889L143.072 14.8523C141.845 15.895 140.842 16.5901 140.396 16.9377C139.949 17.1694 139.615 17.2853 139.392 17.2853C139.282 17.2853 139.169 17.1694 139.057 17.0536C138.946 16.9377 138.834 16.706 138.834 16.3584C138.834 16.2426 138.946 16.0108 138.946 15.7791C138.946 15.4316 139.169 14.7364 139.39 13.6937L139.836 11.6083H139.725C138.944 12.651 138.498 13.3462 138.387 13.5779C137.829 14.273 137.16 14.9681 136.491 15.6633C135.709 16.2426 135.041 16.8218 134.372 17.0536C134.149 17.1694 133.926 17.2853 133.815 17.2853C133.7 17.2875 133.586 17.256 133.488 17.1946C133.389 17.1331 133.309 17.0441 133.257 16.9377C133.034 16.706 133.034 16.3584 133.034 15.895C133.034 15.3157 133.145 14.3889 133.48 13.2303C133.815 11.3766 134.149 9.87047 134.372 8.82777C134.484 8.24849 134.595 7.78506 134.595 7.55335C134.595 7.43749 134.484 7.32164 134.484 7.20578C134.372 7.20578 134.372 7.08992 134.261 7.08992C134.039 7.08822 133.37 7.43579 132.478 8.13093ZM144.635 17.1677L144.412 17.0519C144.746 15.7774 145.081 14.6189 145.304 13.8079C145.638 12.0683 145.973 10.5639 146.084 9.28949C146.196 8.4785 146.307 8.01507 146.307 7.6675C146.307 7.43579 146.307 7.31994 146.196 7.20408C146.196 7.20408 146.084 7.08822 145.973 7.08822C145.75 7.08822 145.081 7.54994 144.077 8.24678L143.854 7.89922C144.858 7.08822 145.75 6.39308 146.53 5.92966C146.976 5.69795 147.423 5.46624 147.647 5.46624C147.759 5.46624 147.87 5.58209 147.982 5.69795C148.093 5.69795 148.093 5.92966 148.093 6.04552C148.093 6.27723 148.093 6.74065 147.982 7.20408C147.737 8.35807 147.514 9.51685 147.313 10.6798C148.093 9.17364 148.874 8.01507 149.768 6.97236C150.214 6.27723 150.66 5.92966 150.883 5.69795C151.217 5.58209 151.44 5.46624 151.663 5.46624C151.775 5.46624 151.998 5.58209 152.109 5.58209C151.998 6.27723 151.886 7.20408 151.775 8.24678H151.437C151.214 8.01507 150.991 7.78336 150.656 7.78336C150.364 7.79699 150.087 7.92052 149.876 8.13093C149.318 8.4785 148.872 9.05778 148.315 9.86878C147.736 10.8035 147.286 11.8173 146.977 12.881C146.865 13.5762 146.53 14.8506 146.196 16.8201C145.527 16.936 144.968 17.0519 144.635 17.1677ZM155.229 1.52712C155.229 1.17956 155.34 0.716132 155.565 0.48442C155.786 0.136851 156.122 0.0209961 156.455 0.0209961C156.791 0.0209961 156.903 0.136848 157.124 0.252705C157.236 0.368561 157.349 0.600275 157.349 0.947843C157.349 1.41127 157.237 1.75884 157.013 2.10641C156.791 2.45397 156.455 2.56983 156.122 2.56983C155.786 2.56983 155.565 2.45398 155.453 2.33812C155.229 2.1047 155.229 1.87469 155.229 1.52712ZM152.329 8.24678L152.218 7.78336C153.444 6.74065 154.336 6.16137 154.783 5.92966C155.227 5.69795 155.565 5.58209 155.785 5.58209C156.009 5.58209 156.009 5.69795 156.121 5.8138C156.26 5.97258 156.338 6.17847 156.342 6.39308C156.342 6.50894 156.234 6.74065 156.234 6.97236C156.03 7.82722 155.807 8.67707 155.565 9.5212C154.783 12.7652 154.336 14.6189 154.336 15.1999C154.336 15.3157 154.448 15.4316 154.448 15.5474C154.558 15.5474 154.558 15.6633 154.669 15.6633C154.781 15.6633 155.006 15.5474 155.227 15.4316C155.452 15.3157 155.896 15.084 156.565 14.6206L156.79 15.084C155.563 16.0109 154.558 16.706 154 17.0536C153.666 17.1694 153.443 17.2853 153.331 17.2853C153.22 17.2853 152.997 17.1694 152.885 16.9377C152.662 16.8218 152.662 16.5901 152.662 16.2426V15.4316C152.774 15.084 152.885 14.5047 153.108 13.6937C153.889 10.4498 154.335 8.36434 154.335 7.66921C154.335 7.43749 154.335 7.32164 154.223 7.32164C154.223 7.20578 154.112 7.20578 154.112 7.20578C154 7.20578 153.889 7.20578 153.777 7.32164C153.667 7.31994 153.333 7.6675 152.329 8.24678ZM158.13 17.1677L157.905 16.936C158.462 15.314 158.907 13.3444 159.356 11.0273C159.689 9.28948 159.801 8.24678 159.801 7.6675C159.801 7.55165 159.801 7.43579 159.689 7.31994C159.689 7.31994 159.578 7.20408 159.464 7.20408C159.464 7.20408 159.356 7.20408 159.243 7.31994C159.018 7.31994 158.795 7.43579 158.574 7.6675L157.68 8.24678L157.459 7.78336L158.574 6.97236C158.907 6.6248 159.356 6.39309 159.801 6.16137C160.245 5.92966 160.583 5.69795 160.803 5.69795C160.914 5.58209 161.027 5.58209 161.139 5.58209C161.247 5.58209 161.472 5.69795 161.472 5.69795C161.583 5.92966 161.696 6.04552 161.696 6.27723C161.696 6.50894 161.696 6.62479 161.585 6.85651C161.585 7.20408 161.473 7.89922 161.249 8.82607L160.691 11.0273H160.803C161.472 9.86876 162.029 8.94192 162.923 8.01507C163.814 7.20408 164.707 6.50894 165.598 6.04552C166.267 5.8138 166.824 5.58209 167.161 5.58209C167.385 5.58209 167.493 5.69795 167.605 5.8138C167.745 5.97216 167.825 6.17806 167.83 6.39308C167.83 6.97236 167.605 8.24678 167.047 10.3322C166.378 13.1127 166.045 14.7347 166.045 15.1982V15.5457C166.157 15.6616 166.267 15.6616 166.267 15.6616C166.378 15.6616 166.603 15.6616 166.824 15.4299C167.385 15.1982 167.83 14.8506 168.276 14.503L168.5 14.9664C167.831 15.5457 167.274 15.8933 166.938 16.2409C166.159 16.7043 165.599 16.936 165.265 17.1677H164.82C164.596 17.1677 164.484 17.1677 164.373 17.0519C164.265 16.8201 164.151 16.5884 164.151 16.3567C164.151 16.125 164.151 15.7774 164.263 15.4299C164.371 14.8506 164.596 13.692 165.042 11.8383C165.599 9.63706 165.936 8.24679 165.936 7.78336C165.936 7.55165 165.824 7.43579 165.824 7.31994C165.713 7.20408 165.599 7.20408 165.491 7.20408C165.267 7.20408 164.934 7.31993 164.597 7.43579C164.04 7.78336 163.371 8.24679 162.813 8.94192C162.144 9.63706 161.698 10.3322 161.362 11.1432C160.917 11.8383 160.583 12.881 160.247 14.0396C160.135 14.503 159.914 15.4299 159.689 16.8201C159.132 16.8201 158.576 17.0519 158.13 17.1677ZM176.752 15.314C176.531 15.4299 176.42 15.5457 176.308 15.5457C176.197 15.5457 176.083 15.5457 176.083 15.4299C175.975 15.314 175.975 15.1982 175.975 15.0823V14.7347C176.083 14.1554 176.197 13.4603 176.308 12.6476C176.42 12.1859 176.644 11.4891 176.866 10.5622C177.202 9.05608 177.648 7.43408 178.092 5.69624L177.871 5.46453L177.089 5.92796C176.712 5.82817 176.34 5.71222 175.974 5.58039C175.749 5.58039 175.413 5.46453 175.08 5.46453C174.635 5.46453 174.186 5.58039 173.742 5.69624C173.184 5.92795 172.515 6.39138 171.733 6.97066C171.288 7.31823 170.954 7.6658 170.731 8.24508C170.202 9.35433 169.791 10.5197 169.504 11.7208C169.171 13.111 168.946 14.2696 168.946 15.1982C168.946 16.0092 169.058 16.5884 169.279 16.936C169.391 17.1677 169.616 17.1677 169.727 17.1677H170.171C170.616 16.936 171.173 16.4726 171.844 16.0091C172.402 15.4299 173.071 14.8506 173.628 14.0396C173.965 13.692 174.411 13.1127 174.967 12.3017H175.078C174.521 14.2713 174.296 15.6616 174.296 16.4726C174.296 16.7043 174.296 16.8201 174.521 16.936C174.632 17.1677 174.745 17.1677 174.853 17.1677H175.19C175.523 16.936 175.859 16.7043 176.416 16.3567L178.089 14.9664L177.977 14.503C177.422 14.9664 176.976 15.314 176.752 15.314Z" fill="black"/>
<path fill-rule="evenodd" clip-rule="evenodd" d="M175.08 10.7958C174.635 11.8385 174.186 12.6495 173.52 13.4605C172.851 14.2715 172.293 14.8508 171.624 15.1984C171.4 15.4301 171.177 15.5459 171.067 15.5459C170.955 15.5459 170.842 15.5459 170.842 15.4301C170.731 15.4301 170.731 15.3142 170.731 15.1984C170.619 15.1984 170.619 14.9666 170.619 14.7349C170.619 13.5764 170.844 12.1861 171.288 10.5641C171.487 9.59001 171.826 8.65261 172.293 7.78356C172.515 7.32014 172.626 7.08842 172.851 6.97257C173.184 6.74085 173.63 6.625 174.299 6.625C174.635 6.625 174.968 6.74086 175.304 6.74086C175.526 6.85671 175.862 6.97257 176.083 7.08842C175.862 8.59455 175.526 9.86898 175.08 10.7958Z" fill="white"/>
</g>
<defs>
<clipPath id="clip0_191_378">
<rect width="307" height="129" fill="white"/>
</clipPath>
</defs>
</svg>
