<svg width="277" height="118" viewBox="0 0 277 118" fill="none" xmlns="http://www.w3.org/2000/svg">
<path fill-rule="evenodd" clip-rule="evenodd" d="M140.72 113C162.683 113 187.944 103.85 197.212 94.2712C203.784 87.4782 203.9 86.9802 205.815 82.7467C208.296 77.2663 201.115 70.5284 206.103 66.8034C209.888 63.9785 214.079 69.0752 218.218 66.8034C226.502 62.2546 213.516 45.2667 212.574 43.2735C211.482 40.9518 211.132 39.3002 210.934 38.0151C210.796 37.1269 211.14 35.6251 211.412 34.4636C213.327 26.6102 215.062 22.1126 218.104 9.87858C218.665 7.62519 217.249 6.03139 215.996 5.4388C214.695 4.82388 212.368 4.75687 209.802 5.88028C198.767 10.7077 188.697 15.3419 178.433 19.645C177.443 20.0589 176.52 19.9696 175.698 19.9183C171.754 19.67 161.506 13.7915 140.776 13.7915C120.044 13.7915 109.798 19.67 105.855 19.9183C105.031 19.9696 104.107 20.0589 103.118 19.645C92.8559 15.3419 82.7857 10.709 71.7506 5.88028C69.1824 4.75687 66.8563 4.82388 65.5558 5.4388C64.3039 6.03139 62.8875 7.62519 63.4483 9.87858C66.4904 22.1126 68.224 26.6102 70.1407 34.4636C70.4145 35.6251 70.7567 37.1269 70.6185 38.0151C70.4211 39.3002 70.0722 40.9518 68.977 43.2735C68.0371 45.268 65.7598 45.2891 64.4987 47.2547C61.2249 52.3633 66.3587 56.56 67.7462 62.4635C68.9836 67.7337 68.6874 70.4351 71.1674 75.9169C73.0828 80.1517 77.769 87.4782 84.3403 94.2712C93.6089 103.85 118.869 113 140.831 113H140.72V113Z" fill="#CC203C" stroke="#F4CF53" stroke-width="10" stroke-miterlimit="2.613"/>
<path fill-rule="evenodd" clip-rule="evenodd" d="M236.213 70.7495C240.852 74.1292 246.724 76.817 253.079 74.9184C253.961 74.522 253.597 73.6953 253.356 73.1617C251.501 70.9324 248.367 70.3203 245.931 68.7782C239.868 64.7746 236.62 59.0437 237.794 52.697C238.51 47.9125 243.781 43.7799 249.137 42.4231C255.377 40.9162 262.649 41.8871 268.276 44.0402L271.382 47.3824C271.659 51.0869 271.221 54.4537 271.321 58.3049C267.813 55.9407 263.668 54.8489 259.063 54.6871C257.588 54.7469 256.174 54.9521 255.182 55.9337C254.949 56.3746 254.483 56.8167 254.785 57.3503C260.966 61.3046 270.201 64.0651 272.4 71.0227C274.945 77.2955 271.416 83.9997 264.423 87.0745C257.197 90.2467 246.332 89.8855 239.217 86.7685C238.56 86.0414 236.913 84.7092 236.197 84.0807L235.313 72.2564L236.213 70.7495V70.7495ZM204.685 87.0183L205.529 88.3282L184.808 88.3809C183.915 87.5096 183.078 86.5398 182.007 85.7189C181.306 80.9461 178.02 77.068 175.672 72.8427C175.608 78.012 175.137 83.6714 176.839 88.3903L160.607 88.5557C159.478 87.8814 158.818 86.8142 157.925 85.9417C158.61 83.7418 158.94 81.448 158.912 79.0592C157.989 80.7725 156.946 82.8282 154.956 84.3539C148.992 89.6146 139.143 90.5141 130.976 88.4771C128.194 87.7172 125.116 86.8611 123.495 84.3879C123.333 85.8022 123.82 87.3103 124.248 88.6718L108.312 88.7386L105.686 86.0273C106.416 82.4143 106.431 78.4154 106.332 74.5643L106.054 47.991C105.92 46.5287 105.727 45.0182 105.182 43.706C107.835 43.4914 110.023 43.7681 112.44 43.5559C112.024 43.1689 111.078 43.0293 110.483 42.5955C107.449 40.3251 104.468 37.5669 105.257 34.05C105.649 32.0482 107.458 30.0359 109.75 29.1411C111.983 28.1502 115.409 28.3695 117.487 29.5727C120.401 31.6976 123.381 34.4065 122.829 37.873C122.502 40.46 119.987 42.6717 117.104 43.4726C118.404 43.7072 119.878 43.4527 121.179 43.6872L123.627 46.3023L123.069 49.4756L123.039 68.9318L123.178 70.9301C127.408 74.7519 133.273 76.7572 139.4 75.4942C140.105 75.2456 140.987 74.8492 141.156 74.2136C140.97 73.2884 139.838 72.5167 138.89 71.9867C132.252 69.4021 125.178 64.6749 123.99 58.3447C122.873 53.1356 125.361 48.4847 130.168 45.2797C136.908 40.8423 148.423 41.2973 155.485 44.8541L157.992 47.5173L157.934 58.6825C153.484 56.5212 148.736 54.2145 143.197 54.9861C142.313 55.1386 141.495 55.7296 141.146 56.4145C140.75 57.9777 143.057 58.3998 144.13 59.2219C150.174 61.6154 156.77 65.7128 158.777 71.2584L158.946 70.7202L158.483 37.9563C158.164 35.6672 157.962 33.3277 157.23 31.1394C162.797 31.0022 168.367 30.9619 173.936 31.0186L176.262 33.4402C175.284 35.6906 175.25 38.2753 175.278 40.8599L175.406 53.0008C177.097 50.9403 178.664 48.5398 179.997 46.1898C180.344 45.3091 180.687 44.4295 180.737 43.4539C186.576 43.217 192.891 43.3178 199.505 43.319L201.355 45.1578C195.211 50.2731 191.798 56.9293 187.02 62.815C189.839 66.9887 192.421 71.2608 195.357 75.384L204.685 87.0183V87.0183Z" fill="black" stroke="black" stroke-width="2.80147" stroke-miterlimit="2.613"/>
<path fill-rule="evenodd" clip-rule="evenodd" d="M182.986 85.535C182.663 83.0587 181.401 80.9307 180.137 78.8003C177.789 74.7839 175.617 70.7662 173.094 66.897L172.916 66.8982C172.864 72.9235 172.228 79.7796 173.766 85.6004L158.932 85.7067C159.671 82.8343 159.693 79.5786 159.721 76.4199L159.316 38.2313C159.174 36.046 158.917 33.9577 158.361 31.922C163.266 31.8379 168.349 31.8016 173.136 31.8157L172.476 36.4854L172.709 58.2996L172.767 58.3475C175.563 54.4888 178.301 50.5343 180.798 46.5318C181.264 45.7512 181.311 44.7299 181.836 44.0953L198.088 44.0275L194.992 47.4024L183.688 62.5463L196.058 81.0674C197.258 82.6135 198.633 84.0614 200.064 85.5093L182.986 85.535V85.535ZM148.227 85.0068C140.695 88.2192 130.044 87.0319 123.267 83.3392C123.11 79.6319 123.071 75.9219 123.149 72.2129C125.469 73.5568 127.85 75.0947 130.516 75.804C133.952 76.5578 138.452 77.3992 141.383 75.1929C142.146 74.5548 142.552 73.7742 142.482 72.8031C142.112 71.4452 140.269 70.342 138.901 69.5731C133.848 66.8397 125.905 64.6615 124.956 58.8372C123.304 53.5528 126.089 48.5769 131.375 45.4766C138.013 41.5419 148.246 42.2454 155.016 45.4532C155.165 48.5617 155.202 51.8174 155.116 54.878C150.962 53.305 146.387 51.1992 141.379 52.5466C139.966 53.1402 138.798 54.3147 138.989 55.6738C139.123 57.0819 140.668 57.9934 141.918 58.8103C147.39 61.9784 155.451 64.3494 156.995 70.4133C158.48 76.4783 154.877 82.2863 148.227 85.0068V85.0068ZM119.957 60.9138L120.232 81.321C120.367 82.8752 120.619 84.3792 120.93 85.8341L106.45 85.9381C107.454 80.2459 107.031 73.9331 107.145 67.8576L106.825 48.9099L106.305 44.3945C111.269 44.3103 116.412 44.3699 120.785 44.3875C119.541 49.6438 120.137 55.5195 119.957 60.9138V60.9138ZM117.547 39.9398C115.844 41.0698 113.485 41.4262 111.235 41.0055C108.807 40.5369 106.717 38.6076 106.164 36.6689C105.609 34.4368 106.473 32.2925 108.527 30.8212C110.169 29.5953 112.527 29.0917 114.896 29.5603C116.969 29.9821 118.994 31.4744 119.78 33.1689C120.871 35.5914 120.013 38.368 117.547 39.9398Z" fill="white" stroke="white" stroke-width="2.80147" stroke-miterlimit="2.613"/>
<path fill-rule="evenodd" clip-rule="evenodd" d="M88.7758 89.1978L86.1505 86.6014C87.2949 83.1387 87.2537 79.2417 87.1543 75.3447L86.9073 57.336C86.3677 56.6003 85.3042 56.4104 84.2407 56.4187C83.0608 56.5267 81.9448 57.0275 81.3059 57.9697C80.0351 60.6919 80.8955 63.8935 80.691 66.955L80.9267 83.9266C81.1227 85.7505 81.3186 87.5744 82.4574 89.0957L80.9821 89.2547L65.2768 89.2215L62.89 86.7722C63.8016 83.5588 63.9422 80.0546 63.9635 76.5516L63.6937 50.6978H63.5758L62.8347 53.0723L56.8357 83.6074C56.6766 85.385 56.5801 87.4593 57.2474 89.1313L39.773 89.3069L37.2655 86.612C37.3876 81.4299 35.8612 76.605 34.8063 71.6791C33.7896 76.0781 33.0101 80.5731 32.4081 85.067C32.4237 86.5468 32.3797 88.0277 32.8071 89.3568L15.3923 89.4837L12.9458 86.9858C13.1473 84.3079 12.9007 81.6195 12.2132 78.9984L5.52128 48.7043C4.85394 46.9824 4.30445 45.1609 3.22534 43.6883C8.59674 43.5506 14.7945 43.4557 20.2284 43.6135L22.4377 45.9655C21.8939 50.4593 23.1221 54.9401 24.2878 59.1753C25.0602 53.9884 26.9558 48.9914 26.2501 43.5684L41.5407 43.5067L43.6904 45.7602C43.2645 50.2042 44.7241 54.24 45.5945 58.4277L45.8827 57.8332C46.3044 53.0439 48.2057 48.4907 47.2103 43.515L63.6227 43.4936C63.7576 39.3475 63.7704 34.9556 62.3732 31.2165C67.746 31.2272 73.647 31.0848 79.257 31.1429L81.4052 33.3465C80.0819 36.5636 80.7734 40.654 80.6328 44.1083C81.8695 43.8034 83.1645 43.3501 84.4594 43.0451C89.642 41.9225 95.0304 43.3631 98.6099 46.8887C101.529 49.3842 103.507 52.2808 103.368 55.8349L103.713 83.4638C103.969 85.3364 104.048 87.3098 105.129 88.9296L104.659 89.1301L88.7758 89.1978V89.1978Z" fill="black" stroke="black" stroke-width="2.80147" stroke-miterlimit="2.613"/>
<path fill-rule="evenodd" clip-rule="evenodd" d="M87.0391 86.2435C87.8934 83.5345 87.9797 80.5359 87.8906 77.5881L87.6176 57.0965C87.3106 55.8212 86.4733 54.4997 84.9371 53.8721C83.7991 53.4214 82.5108 53.3096 81.2863 53.5553C80.0543 53.8591 78.7699 54.7527 78.1914 55.7396L77.801 57.6603L78.1164 82.2308C78.4248 83.6042 78.3824 85.0297 79.0995 86.253L78.8647 86.3535L63.7494 86.3653C64.9489 82.9163 64.7877 78.887 64.8655 74.9559L64.4609 36.1818C64.2105 34.7587 64.0776 33.3344 63.5938 32.0603L78.6511 32C77.1701 36.6297 77.8137 41.8835 77.7487 47.0451L78.2197 46.9931C81.4278 44.4141 85.2936 42.9603 89.9473 43.5654C94.2459 44.0264 98.512 47.0416 99.959 50.4716L100.514 52.8757L100.929 81.524C101.006 83.1941 101.316 84.7153 101.744 86.2365L87.0391 86.2435V86.2435ZM60.4522 52.1346L54.3699 83.583L54.2822 86.4338L38.4017 86.4019L38.3083 83.0617L34.7693 65.1988C34.5854 64.5109 34.5175 63.6764 34.0422 63.2379L33.8074 63.2391C32.5048 69.6243 31.2972 76.0227 30.1849 82.4329C30.0205 83.7718 29.9756 85.119 30.0505 86.4634C25.1125 86.6962 19.2876 86.4433 14.2322 86.6773C14.1728 80.9283 12.5872 75.6308 11.5305 70.2339L6.53454 48.1042C6.16819 46.8288 5.56703 45.6043 4.96729 44.4295L19.7884 44.3704C19.1066 46.5865 19.661 49.0887 19.9213 51.3474L23.3826 67.4422C23.5594 67.441 23.7362 67.636 23.8536 67.4386C25.3657 60.2523 26.6444 53.0187 27.6841 45.6882C27.6798 45.2462 27.3757 44.3633 27.9047 44.2616L40.9633 44.3633C40.5178 46.726 41.2462 48.9812 41.5051 51.2387C42.6791 56.6367 43.6763 62.0359 44.9084 67.3831C44.9678 67.4812 45.1446 67.4303 45.2026 67.4303L45.7655 65.0676L48.4121 48.142C48.3979 46.8643 48.6794 45.5842 48.3725 44.3585C53.2539 44.2734 58.3687 44.1375 63.2515 44.2983C61.8073 46.7189 61.0704 49.4268 60.4522 52.1346V52.1346ZM261.528 84.9221C253.624 88.273 242.789 87.0248 235.633 83.2922C235.535 79.5744 235.496 75.8556 235.517 72.1369C240.25 74.9535 246.216 77.5136 252.314 75.6024C253.369 75.1521 254.3 74.3093 254.703 73.4217C254.979 71.7977 253.614 70.4822 252.077 69.6571C246.816 67.1892 239.379 64.7355 238.025 58.9959C236.384 53.9454 238.094 48.7732 242.94 45.3951C249.361 40.6803 260.135 41.7807 267.166 44.6292L267.346 44.9235L267.384 54.261C263.718 52.5176 259.53 51.3699 254.949 51.9928C253.717 52.2966 252.488 52.9443 251.795 53.982C251.45 54.6227 251.342 55.5576 251.702 56.2431C254.678 59.5632 259.514 60.9036 263.305 63.3833C268.273 66.0995 270.316 70.4089 269.604 75.2301C269.116 79.2641 265.742 82.8762 261.528 84.9221V84.9221Z" fill="white" stroke="white" stroke-width="2.80147" stroke-miterlimit="2.613"/>
<path fill-rule="evenodd" clip-rule="evenodd" d="M236.213 70.7495C240.852 74.1292 246.724 76.817 253.079 74.9184C253.961 74.522 253.597 73.6953 253.356 73.1617C251.501 70.9324 248.367 70.3203 245.931 68.7782C239.868 64.7746 236.62 59.0437 237.794 52.697C238.51 47.9125 243.781 43.7799 249.137 42.4231C255.377 40.9162 262.649 41.8871 268.276 44.0402L271.382 47.3824C271.659 51.0869 271.221 54.4537 271.321 58.3049C267.813 55.9407 263.668 54.8489 259.063 54.6871C257.588 54.7469 256.174 54.9521 255.182 55.9337C254.949 56.3746 254.483 56.8167 254.785 57.3503C260.966 61.3046 270.201 64.0651 272.4 71.0227C274.945 77.2955 271.416 83.9997 264.423 87.0745C257.197 90.2467 246.332 89.8855 239.217 86.7685C238.56 86.0414 236.913 84.7092 236.197 84.0807L235.313 72.2564L236.213 70.7495V70.7495ZM204.685 87.0183L205.529 88.3282L184.808 88.3809C183.915 87.5096 183.078 86.5398 182.007 85.7189C181.306 80.9461 178.02 77.068 175.672 72.8427C175.608 78.012 175.137 83.6714 176.839 88.3903L160.607 88.5557C159.478 87.8814 158.818 86.8142 157.925 85.9417C158.61 83.7418 158.94 81.448 158.912 79.0592C157.989 80.7725 156.946 82.8282 154.956 84.3539C148.992 89.6146 139.143 90.5141 130.976 88.4771C128.194 87.7172 125.116 86.8611 123.495 84.3879C123.333 85.8022 123.82 87.3103 124.248 88.6718L108.312 88.7386L105.686 86.0273C106.416 82.4143 106.431 78.4154 106.332 74.5643L106.054 47.991C105.92 46.5287 105.727 45.0182 105.182 43.706C107.835 43.4914 110.023 43.7681 112.44 43.5559C112.024 43.1689 111.078 43.0293 110.483 42.5955C107.449 40.3251 104.468 37.5669 105.257 34.05C105.649 32.0482 107.458 30.0359 109.75 29.1411C111.983 28.1502 115.409 28.3695 117.487 29.5727C120.401 31.6976 123.381 34.4065 122.829 37.873C122.502 40.46 119.987 42.6717 117.104 43.4726C118.404 43.7072 119.878 43.4527 121.179 43.6872L123.627 46.3023L123.069 49.4756L123.039 68.9318L123.178 70.9301C127.408 74.7519 133.273 76.7572 139.4 75.4942C140.105 75.2456 140.987 74.8492 141.156 74.2136C140.97 73.2884 139.838 72.5167 138.89 71.9867C132.252 69.4021 125.178 64.6749 123.99 58.3447C122.873 53.1356 125.361 48.4847 130.168 45.2797C136.908 40.8423 148.423 41.2973 155.485 44.8541L157.992 47.5173L157.934 58.6825C153.484 56.5212 148.736 54.2145 143.197 54.9861C142.313 55.1386 141.495 55.7296 141.146 56.4145C140.75 57.9777 143.057 58.3998 144.13 59.2219C150.174 61.6154 156.77 65.7128 158.777 71.2584L158.946 70.7202L158.483 37.9563C158.164 35.6672 157.962 33.3277 157.23 31.1394C162.797 31.0022 168.367 30.9619 173.936 31.0186L176.262 33.4402C175.284 35.6906 175.25 38.2753 175.278 40.8599L175.406 53.0008C177.097 50.9403 178.664 48.5398 179.997 46.1898C180.344 45.3091 180.687 44.4295 180.737 43.4539C186.576 43.217 192.891 43.3178 199.505 43.319L201.355 45.1578C195.211 50.2731 191.798 56.9293 187.02 62.815C189.839 66.9887 192.421 71.2608 195.357 75.384L204.685 87.0183V87.0183Z" fill="black" stroke="black" stroke-width="2.80147" stroke-miterlimit="2.613"/>
<path fill-rule="evenodd" clip-rule="evenodd" d="M182.986 85.535C182.663 83.0587 181.401 80.9307 180.137 78.8003C177.789 74.7839 175.617 70.7662 173.094 66.897L172.916 66.8982C172.864 72.9235 172.228 79.7796 173.766 85.6004L158.932 85.7067C159.671 82.8343 159.693 79.5786 159.721 76.4199L159.316 38.2313C159.174 36.046 158.917 33.9577 158.361 31.922C163.266 31.8379 168.349 31.8016 173.136 31.8157L172.476 36.4854L172.709 58.2996L172.767 58.3475C175.563 54.4888 178.301 50.5343 180.798 46.5318C181.264 45.7512 181.311 44.7299 181.836 44.0953L198.088 44.0275L194.992 47.4024L183.688 62.5463L196.058 81.0674C197.258 82.6135 198.633 84.0614 200.064 85.5093L182.986 85.535V85.535ZM148.227 85.0068C140.695 88.2192 130.044 87.0319 123.267 83.3392C123.11 79.6319 123.071 75.9219 123.149 72.2129C125.469 73.5568 127.85 75.0947 130.516 75.804C133.952 76.5578 138.452 77.3992 141.383 75.1929C142.146 74.5548 142.552 73.7742 142.482 72.8031C142.112 71.4452 140.269 70.342 138.901 69.5731C133.848 66.8397 125.905 64.6615 124.956 58.8372C123.304 53.5528 126.089 48.5769 131.375 45.4766C138.013 41.5419 148.246 42.2454 155.016 45.4532C155.165 48.5617 155.202 51.8174 155.116 54.878C150.962 53.305 146.387 51.1992 141.379 52.5466C139.966 53.1402 138.798 54.3147 138.989 55.6738C139.123 57.0819 140.668 57.9934 141.918 58.8103C147.39 61.9784 155.451 64.3494 156.995 70.4133C158.48 76.4783 154.877 82.2863 148.227 85.0068V85.0068ZM119.957 60.9138L120.232 81.321C120.367 82.8752 120.619 84.3792 120.93 85.8341L106.45 85.9381C107.454 80.2459 107.031 73.9331 107.145 67.8576L106.825 48.9099L106.305 44.3945C111.269 44.3103 116.412 44.3699 120.785 44.3875C119.541 49.6438 120.137 55.5195 119.957 60.9138V60.9138ZM117.547 39.9398C115.844 41.0698 113.485 41.4262 111.235 41.0055C108.807 40.5369 106.717 38.6076 106.164 36.6689C105.609 34.4368 106.473 32.2925 108.527 30.8212C110.169 29.5953 112.527 29.0917 114.896 29.5603C116.969 29.9821 118.994 31.4744 119.78 33.1689C120.871 35.5914 120.013 38.368 117.547 39.9398Z" fill="white" stroke="white" stroke-width="2.80147" stroke-miterlimit="2.613"/>
<path fill-rule="evenodd" clip-rule="evenodd" d="M88.7758 89.1978L86.1505 86.6014C87.2949 83.1387 87.2537 79.2417 87.1543 75.3447L86.9073 57.336C86.3677 56.6003 85.3042 56.4104 84.2407 56.4187C83.0608 56.5267 81.9448 57.0275 81.3059 57.9697C80.0351 60.6919 80.8955 63.8935 80.691 66.955L80.9267 83.9266C81.1227 85.7505 81.3186 87.5744 82.4574 89.0957L80.9821 89.2547L65.2768 89.2215L62.89 86.7722C63.8016 83.5588 63.9422 80.0546 63.9635 76.5516L63.6937 50.6978H63.5758L62.8347 53.0723L56.8357 83.6074C56.6766 85.385 56.5801 87.4593 57.2474 89.1313L39.773 89.3069L37.2655 86.612C37.3876 81.4299 35.8612 76.605 34.8063 71.6791C33.7896 76.0781 33.0101 80.5731 32.4081 85.067C32.4237 86.5468 32.3797 88.0277 32.8071 89.3568L15.3923 89.4837L12.9458 86.9858C13.1473 84.3079 12.9007 81.6195 12.2132 78.9984L5.52128 48.7043C4.85394 46.9824 4.30445 45.1609 3.22534 43.6883C8.59674 43.5506 14.7945 43.4557 20.2284 43.6135L22.4377 45.9655C21.8939 50.4593 23.1221 54.9401 24.2878 59.1753C25.0602 53.9884 26.9558 48.9914 26.2501 43.5684L41.5407 43.5067L43.6904 45.7602C43.2645 50.2042 44.7241 54.24 45.5945 58.4277L45.8827 57.8332C46.3044 53.0439 48.2057 48.4907 47.2103 43.515L63.6227 43.4936C63.7576 39.3475 63.7704 34.9556 62.3732 31.2165C67.746 31.2272 73.647 31.0848 79.257 31.1429L81.4052 33.3465C80.0819 36.5636 80.7734 40.654 80.6328 44.1083C81.8695 43.8034 83.1645 43.3501 84.4594 43.0451C89.642 41.9225 95.0304 43.3631 98.6099 46.8887C101.529 49.3842 103.507 52.2808 103.368 55.8349L103.713 83.4638C103.969 85.3364 104.048 87.3098 105.129 88.9296L104.659 89.1301L88.7758 89.1978V89.1978Z" fill="black" stroke="black" stroke-width="2.80147" stroke-miterlimit="2.613"/>
<path fill-rule="evenodd" clip-rule="evenodd" d="M86.9547 86.4357C87.8082 83.717 87.8944 80.7078 87.8054 77.7495L87.5327 57.1854C87.226 55.9055 86.3895 54.5794 84.855 53.9496C83.7181 53.4973 82.4312 53.3851 81.2079 53.6317C79.9771 53.9365 78.6941 54.8333 78.1162 55.8237L77.7262 57.7512L78.0413 82.4087C78.3493 83.787 78.3069 85.2175 79.0233 86.4452L78.7888 86.546L63.689 86.5578C64.8873 83.0967 64.7262 79.0531 64.8039 75.108L64.3998 36.1966C64.1497 34.7685 64.0168 33.3391 63.5336 32.0605L78.5754 32C77.096 36.6461 77.7389 41.9185 77.6739 47.0984L78.1444 47.0462C81.3492 44.4581 85.211 42.9991 89.8599 43.6064C94.1542 44.069 98.4159 47.0949 99.8614 50.537L100.415 52.9497L100.831 81.6994C100.907 83.3754 101.217 84.902 101.645 86.4285L86.9547 86.4357V86.4357ZM60.3952 52.2059L54.3192 83.7657L54.2315 86.6266L38.3673 86.5946L38.2741 83.2426L34.7386 65.3164C34.5549 64.626 34.4871 63.7886 34.0123 63.3486L33.7778 63.3498C32.4765 69.7575 31.2701 76.1786 30.159 82.6115C29.9947 83.9551 29.9499 85.3071 30.0247 86.6563C25.0918 86.8899 19.2729 86.6361 14.2227 86.871C14.1634 81.1016 12.5793 75.7853 11.5238 70.3694L6.53293 48.1612C6.16696 46.8814 5.56641 45.6525 4.96729 44.4735L19.7731 44.4142C19.092 46.6382 19.646 49.1493 19.906 51.416L23.3637 67.5677C23.5403 67.5665 23.7169 67.7622 23.8342 67.5641C25.3447 60.3524 26.6221 53.0932 27.6607 45.7367C27.6565 45.2931 27.3527 44.4071 27.8812 44.305L40.9263 44.4071C40.4812 46.7782 41.209 49.0413 41.4675 51.3069C42.6404 56.724 43.6366 62.1423 44.8673 67.5084C44.9267 67.6068 45.1033 67.5558 45.1612 67.5558L45.7236 65.1847L48.3674 48.1992C48.3533 46.9169 48.6345 45.6323 48.3279 44.4023C53.2043 44.3169 58.3138 44.1805 63.1916 44.3418C61.7489 46.771 61.0127 49.4885 60.3952 52.2059V52.2059Z" fill="white" stroke="white" stroke-width="2.80147" stroke-miterlimit="2.613"/>
<path fill-rule="evenodd" clip-rule="evenodd" d="M236.484 84.3927L235.631 70.4888L235.645 60.6639C235.764 55.2151 234.418 50.1663 229.565 46.4067C222.514 40.2326 210.194 40.8561 201.358 43.4495L200.29 53.5259L202.486 55.7473L205.471 54.8501C209.447 53.6055 214.676 53.9564 217.581 56.7077C217.706 57.2902 217.949 58.067 217.662 58.653C212.189 57.2821 205.384 57.8669 201.013 60.8159C195.826 64.4048 194.296 69.6688 194.999 75.1117L196.284 79.7768L204.28 86.7182C205.399 87.1966 206.461 87.6751 207.581 88.0564C212.232 89.3853 217.385 88.2775 220.7 85.3355L223.312 87.895L237.516 87.7932C237.092 86.6749 236.493 85.5601 236.484 84.3927V84.3927ZM218.869 72.8962C218.585 73.8706 217.656 74.8017 216.605 75.3925C215.201 75.8896 213.266 76.1961 211.909 75.4264C211.371 74.5069 210.83 73.4892 211.289 72.4154C211.631 71.4901 212.325 70.463 213.494 70.0162C214.84 69.5202 216.717 69.4091 217.843 70.277C218.962 70.9005 219.208 71.9206 218.869 72.8962V72.8962Z" fill="black" stroke="black" stroke-width="2.80147" stroke-miterlimit="2.613"/>
<path fill-rule="evenodd" clip-rule="evenodd" d="M261.575 84.9343C253.715 88.2643 242.941 87.0239 235.826 83.3144C235.728 79.6196 235.69 75.9239 235.71 72.2283C240.416 75.0274 246.349 77.5717 252.413 75.6723C253.462 75.2248 254.387 74.3872 254.788 73.5051C255.062 71.8912 253.705 70.5838 252.176 69.7639C246.946 67.3113 239.55 64.8727 238.204 59.1687C236.573 54.1496 238.273 49.0094 243.092 45.6523C249.476 40.9667 260.189 42.0603 267.181 44.8911L267.36 45.1836L267.398 54.4632C263.752 52.7306 259.587 51.59 255.033 52.2091C253.808 52.5109 252.586 53.1546 251.896 54.186C251.553 54.8226 251.446 55.7518 251.804 56.433C254.763 59.7326 259.572 61.0646 263.341 63.529C268.281 66.2283 270.313 70.511 269.604 75.3023C269.119 79.3113 265.765 82.901 261.575 84.9343V84.9343ZM232.925 79.9162L232.612 55.498C232.698 52.4205 231.848 49.7412 229.427 47.6092C222.64 41.5047 210.945 41.7854 202.084 44.2921L201.067 53.433C201.767 53.379 202.465 53.0325 203.165 52.881C207.192 51.9236 212.912 50.8559 216.447 53.4189C218.628 55.0634 218.71 57.408 218.62 59.85L218.386 60.0474C214.046 58.7118 207.961 58.5603 203.889 60.5442C198.414 62.9287 195.95 67.7811 195.709 72.6183C195.77 78.186 198.926 83.6339 205.209 86.029C209.258 87.5149 214.631 86.8888 217.881 84.4233C218.81 83.7808 219.329 82.8986 220.199 82.4041C220.562 83.426 220.689 84.4996 220.935 85.5721C225.437 85.6379 230.525 85.6003 234.619 85.4734C233.61 83.7714 233.297 81.8191 232.925 79.9162V79.9162ZM217.099 76.4675C215.701 77.1617 213.482 77.3732 211.897 76.7976C209.845 76.1786 208.479 74.3802 208.285 72.5748C208.15 70.6707 209.302 69.0016 211.222 68.0114C212.908 67.168 215.482 67.2479 217.185 68.0654C218.715 68.9323 219.784 70.2925 219.915 71.8066C219.995 73.7107 219.077 75.5243 217.099 76.4675V76.4675Z" fill="white" stroke="white" stroke-width="2.80147" stroke-miterlimit="2.613"/>
<path fill-rule="evenodd" clip-rule="evenodd" d="M270.316 22.408C267.185 22.4355 264.419 24.6186 264.45 28.332C264.48 32.0454 267.289 34.1808 270.418 34.1533C273.531 34.1258 276.301 31.9426 276.266 28.2292C276.236 24.5159 273.43 22.3805 270.316 22.408ZM270.406 32.8026V32.7866C268.071 32.8228 266.169 31.0204 266.146 28.3175C266.123 25.6132 267.99 23.7949 270.326 23.7746C272.598 23.7558 274.546 25.5408 274.569 28.2437C274.595 30.948 272.68 32.7823 270.406 32.8026Z" fill="white"/>
<path fill-rule="evenodd" clip-rule="evenodd" d="M272.989 27.0005C272.974 25.5556 272.005 25.0982 270.37 25.1126L268.003 25.1329L268.057 31.4565L269.415 31.4449L269.389 28.7884L270.029 28.7826L271.513 31.4276L273.116 31.4131L271.473 28.661C272.317 28.59 272.997 28.1644 272.989 27.0005V27.0005ZM270.58 27.7055L269.382 27.7156L269.367 26.1926L270.316 26.1839C270.831 26.1796 271.532 26.2201 271.538 26.873C271.544 27.5723 271.187 27.6997 270.58 27.7055V27.7055Z" fill="white"/>
</svg>
