<svg width="78" height="78" viewBox="0 0 78 78" fill="none" xmlns="http://www.w3.org/2000/svg">
<g clip-path="url(#clip0_423_292)">
<path fill-rule="evenodd" clip-rule="evenodd" d="M0 0H78V78H0V0Z" fill="white"/>
<path fill-rule="evenodd" clip-rule="evenodd" d="M39.0164 53.8358C42.5236 57.0674 47.2334 59.0276 52.3563 59.0276C63.3585 59.0276 72.2634 50.0539 72.2634 39.017C72.2634 27.9464 63.3585 18.9724 52.3563 18.9724C47.2334 18.9724 42.5236 20.9321 39.0164 24.1641C34.9937 27.8428 32.4492 33.1377 32.4492 39.017C32.4496 44.8962 34.9937 50.1915 39.0164 53.8358Z" fill="#E9B040"/>
<path fill-rule="evenodd" clip-rule="evenodd" d="M69.6172 50.1568C69.6172 49.8129 69.8924 49.5381 70.2359 49.5381C70.6139 49.5381 70.8886 49.8133 70.8886 50.1568C70.8886 50.5356 70.6135 50.8104 70.2359 50.8104C69.8924 50.8104 69.6172 50.5356 69.6172 50.1568ZM70.2359 50.6732C70.5111 50.6732 70.751 50.432 70.751 50.1572C70.751 49.8825 70.5107 49.6761 70.2359 49.6761C69.9947 49.6761 69.7548 49.8825 69.7548 50.1572C69.7548 50.432 69.9951 50.6732 70.2359 50.6732ZM70.1671 50.4668H70.0295V49.8821H70.2699C70.3047 49.8821 70.3735 49.8821 70.4075 49.9169C70.4763 49.9508 70.4763 49.9856 70.4763 50.0544C70.4763 50.1232 70.4423 50.192 70.3735 50.192L70.5111 50.4672H70.3387L70.2699 50.226H70.1671V50.4668V50.1228H70.3047C70.3387 50.1228 70.3387 50.088 70.3387 50.054C70.3387 50.0192 70.3387 50.0192 70.3047 49.9852H70.1671V50.4668Z" fill="#E9B040"/>
<path fill-rule="evenodd" clip-rule="evenodd" d="M45.4473 36.8856C45.3785 36.1637 45.2409 35.4762 45.1033 34.7539H32.9321C33.0697 34.032 33.276 33.3445 33.482 32.6566H44.519C44.2794 31.9328 44.0041 31.2213 43.6939 30.5249H34.3419C34.6859 29.7966 35.0645 29.0852 35.4765 28.3931H42.5253C42.0717 27.6588 41.5662 26.9579 41.0126 26.2958H36.9896C37.6119 25.5358 38.2899 24.8233 39.0181 24.1641C35.4769 20.9665 30.8007 18.9724 25.6434 18.9724C14.6756 18.9724 5.73633 27.9464 5.73633 39.017C5.73633 50.0539 14.6756 59.0276 25.6434 59.0276C30.8007 59.0276 35.4765 57.0674 39.0181 53.8358C39.7352 53.1882 40.4019 52.4869 41.0126 51.7381H36.9896C36.4392 51.0506 35.9581 50.3631 35.4765 49.6064H42.5253C42.9685 48.9265 43.3593 48.2139 43.6943 47.4747H34.3419C34.0323 46.7872 33.7232 46.0996 33.482 45.3769H44.519C44.7594 44.6894 44.9317 43.9679 45.1029 43.2452C45.2405 42.5577 45.3781 41.8362 45.4469 41.1135C45.5166 40.4164 45.5511 39.7163 45.5505 39.0157C45.5505 38.2951 45.5161 37.5731 45.4473 36.8856Z" fill="#CC2131"/>
<path fill-rule="evenodd" clip-rule="evenodd" d="M69.6172 43.6588C69.6172 43.2809 69.8924 43.0061 70.2359 43.0061C70.6139 43.0061 70.8886 43.2813 70.8886 43.6588C70.8886 44.0028 70.6135 44.3124 70.2359 44.3124C69.8924 44.3124 69.6172 44.0024 69.6172 43.6588ZM70.2359 44.14C70.5111 44.14 70.751 43.9336 70.751 43.6588C70.751 43.3841 70.5107 43.1777 70.2359 43.1777C69.9947 43.1777 69.7548 43.3841 69.7548 43.6588C69.7548 43.9336 69.9951 44.14 70.2359 44.14ZM70.1671 43.9336H70.0295V43.3837H70.4075C70.4763 43.4185 70.4763 43.4872 70.4763 43.556C70.4763 43.59 70.4423 43.6588 70.3735 43.6936L70.5111 43.934H70.3387L70.2699 43.7276H70.1671V43.9336V43.6244H70.2359C70.2699 43.6244 70.3047 43.6244 70.3047 43.5896C70.3387 43.5896 70.3387 43.5556 70.3387 43.5208C70.3387 43.5208 70.3387 43.4868 70.3047 43.4868C70.3047 43.452 70.2699 43.4868 70.2359 43.4868H70.1671V43.9336Z" fill="white"/>
<path fill-rule="evenodd" clip-rule="evenodd" d="M32.2442 44.7935C31.5911 44.9651 31.1096 45.0687 30.6284 45.0687C29.597 45.0687 28.9778 44.4151 28.9778 43.2461C28.9778 43.0057 29.0122 42.7649 29.0466 42.4898L29.1842 41.6995L29.2874 41.046L30.2157 35.4075H32.2786L32.0379 36.6453H33.3445L33.0349 38.7082H31.7283L31.1784 42.0774C31.144 42.2498 31.144 42.3526 31.144 42.4214C31.144 42.8685 31.3504 43.0401 31.8659 43.0401C32.1067 43.0401 32.3126 43.0061 32.519 42.9713L32.2442 44.7935ZM38.9146 44.7247C38.1583 44.9311 37.4708 45.0339 36.7141 45.0339C34.376 45.0339 33.0349 43.796 33.0349 41.3555C33.0349 38.5015 34.6167 36.4385 36.8169 36.4385C38.5702 36.4385 39.7049 37.6076 39.7049 39.4293C39.7049 40.0489 39.6361 40.6332 39.4645 41.4583H35.1667C35.1323 41.5959 35.1323 41.6647 35.1323 41.7335C35.1323 42.6961 35.7854 43.1773 37.0232 43.1773C37.8139 43.1773 38.5014 43.0057 39.2582 42.6622L38.9146 44.7247ZM37.6424 39.8081V39.3954C37.6424 38.7078 37.264 38.3295 36.6109 38.3295C35.923 38.3295 35.4418 38.845 35.2355 39.8077H37.6424V39.8081ZM15.7407 44.8963H13.609L14.8468 37.092L12.062 44.8963H10.5838L10.4118 37.1264L9.10515 44.8963H7.00781L8.6924 34.7539H11.8212L11.89 41.012L13.9873 34.7539H17.4257L15.7407 44.8963ZM20.9329 41.2179C20.7265 41.1831 20.6577 41.1831 20.5201 41.1831C19.2823 41.1831 18.6635 41.6643 18.6635 42.421C18.6635 42.9369 18.9731 43.2809 19.4542 43.2809C20.4857 43.2809 20.8981 42.421 20.9329 41.2179ZM22.6518 44.8963H20.7953L20.8297 44.0372C20.3481 44.6899 19.695 45.0339 18.5604 45.0339C17.5289 45.0339 16.635 44.106 16.635 42.7649C16.635 42.387 16.7038 42.0434 16.807 41.6995C17.1505 40.4268 18.4228 39.6365 20.3825 39.6017C20.6233 39.6017 21.0013 39.6017 21.3452 39.6365C21.4136 39.3614 21.4136 39.2578 21.4136 39.0862C21.4136 38.5359 20.9669 38.3639 19.9698 38.3639C19.3511 38.3639 18.6631 38.4671 18.182 38.6391L17.8724 38.7078L17.7349 38.7418L18.0444 36.8853C19.0415 36.5757 19.7634 36.4385 20.5545 36.4385C22.4111 36.4385 23.4081 37.298 23.4081 38.8794C23.4081 39.2922 23.4425 39.6017 23.305 40.4956L22.8238 43.4525L22.755 43.9684L22.7206 44.3811L22.6862 44.6563L22.6518 44.8963ZM49.2981 36.7137C49.9168 36.7137 50.4671 36.8857 51.2235 37.2636L51.6014 35.0631C51.395 34.9599 51.3262 34.9599 51.0515 34.8567L50.1924 34.6159C49.9172 34.5472 49.5737 34.5128 49.1949 34.5128C48.1286 34.5128 47.5099 34.5472 46.8572 34.9255C46.5132 35.1663 46.0661 35.4758 45.5846 36.0258L45.3094 35.957L43.1089 37.504L43.2125 36.6445H40.9427L39.6025 44.8959H41.7691L42.5593 40.4612C42.5593 40.4612 42.8693 39.8417 43.0065 39.6361C43.4192 39.1202 43.7628 39.1202 44.2095 39.1202H44.3819C44.3097 39.6442 44.2751 40.1727 44.2783 40.7016C44.2783 43.3833 45.7909 45.0683 48.129 45.0683C48.7138 45.0683 49.2301 44.9995 50.0204 44.7931L50.3992 42.4554C49.7117 42.8333 49.0925 43.0053 48.5766 43.0053C47.3048 43.0053 46.5476 42.0426 46.5476 40.53C46.5468 38.2951 47.6819 36.7137 49.2981 36.7137ZM67.5542 34.7539L67.0735 37.642C66.5575 36.8513 65.9384 36.4729 65.1133 36.4729C63.9782 36.4729 62.9128 37.126 62.2593 38.3639V38.3299L60.8842 37.5044L61.0218 36.6449H58.7181L57.4115 44.8963H59.5432L60.2655 40.4616C60.2655 40.4616 60.8154 39.8421 60.953 39.6365C61.297 39.2238 61.6405 39.1546 61.9157 39.1206C61.6753 39.8081 61.5378 40.6332 61.5378 41.5619C61.5378 43.6248 62.6032 44.9999 64.1846 44.9999C64.9757 44.9999 65.5944 44.7247 66.1788 44.0712L66.076 44.8963H68.1049L69.7551 34.7539H67.5542ZM64.9073 42.9369C64.185 42.9369 63.8071 42.387 63.8071 41.3207C63.8071 39.7045 64.4946 38.5359 65.4912 38.5359C66.2476 38.5359 66.6263 39.1206 66.6263 40.1521C66.6263 41.8023 65.9388 42.9369 64.9073 42.9369ZM54.9714 41.2179C54.765 41.1831 54.6962 41.1831 54.5586 41.1831C53.32 41.1831 52.7013 41.6643 52.7013 42.421C52.7013 42.9369 53.0112 43.2809 53.4924 43.2809C54.5238 43.2809 54.9366 42.421 54.9714 41.2179ZM56.6904 44.8963H54.799L54.8678 44.0372C54.3867 44.6899 53.7327 45.0339 52.5989 45.0339C51.5326 45.0339 50.6047 44.14 50.6047 42.7649C50.6047 40.8056 52.0825 39.6021 54.4206 39.6021C54.6618 39.6021 55.0394 39.6021 55.3493 39.6369C55.4181 39.3618 55.4529 39.2582 55.4529 39.0866C55.4529 38.5363 55.0058 38.3643 53.9743 38.3643C53.3896 38.3643 52.6677 38.4675 52.1865 38.6395L51.9114 38.7082L51.7738 38.7422L52.0829 36.8857C53.0804 36.5761 53.8027 36.4389 54.593 36.4389C56.4496 36.4389 57.4123 37.2984 57.4123 38.8798C57.4123 39.2926 57.4811 39.6021 57.3095 40.496L56.8623 43.4529L56.7936 43.9688L56.7248 44.3815L56.6908 44.6567V44.8963H56.6904ZM27.1557 38.3983C27.5684 38.3983 28.1528 38.4327 28.7719 38.5359L29.0814 36.6105C28.4623 36.5417 27.6372 36.4385 27.1557 36.4385C24.7492 36.4385 23.9585 37.7452 23.9585 39.2578C23.9585 40.2553 24.4052 40.9768 25.5743 41.5267C26.4338 41.9394 26.5714 42.0078 26.5714 42.3866C26.5714 42.9017 26.1246 43.2117 25.2991 43.2117C24.646 43.2117 24.0269 43.1081 23.3394 42.8677L23.0986 44.7583L23.1326 44.7931L23.5453 44.8619C23.6829 44.8959 23.8549 44.9307 24.0957 44.9647C24.6112 44.9995 25.0583 45.0335 25.3335 45.0335C27.7404 45.0335 28.7375 44.1056 28.7375 42.283C28.7375 41.1487 28.1871 40.4612 27.1213 39.9801C26.193 39.5669 26.0898 39.4989 26.0898 39.1202C26.0898 38.7422 26.5026 38.3983 27.1557 38.3983Z" fill="#1B3771"/>
<path fill-rule="evenodd" clip-rule="evenodd" d="M52.185 34.41L51.8063 36.6105C51.05 36.2322 50.4996 36.0606 49.8809 36.0606C48.2647 36.0606 47.1305 37.642 47.1305 39.8769C47.1305 41.4243 47.8868 42.3522 49.1594 42.3522C49.6745 42.3522 50.2937 42.1806 50.9812 41.8371L50.6032 44.14C49.8121 44.3464 49.2966 44.45 48.7119 44.45C46.3741 44.45 44.9299 42.765 44.9299 40.0493C44.9299 36.439 46.9241 33.8945 49.7777 33.8945C50.1557 33.8945 50.4992 33.9289 50.7744 33.9977L51.6343 34.204C51.9099 34.3072 51.9787 34.3416 52.185 34.41ZM45.2395 35.923H45.0331C44.3116 35.923 43.8989 36.267 43.2453 37.2637L43.4517 35.9914H41.4916L40.1513 44.2432H42.3179C43.1082 39.189 43.3145 38.3295 44.346 38.3295H44.4836C44.69 37.3324 44.9647 36.6101 45.3087 35.957L45.2395 35.923ZM32.7934 44.14C32.2091 44.3464 31.7276 44.4152 31.2464 44.4152C30.1462 44.4152 29.527 43.7964 29.527 42.5934C29.527 42.387 29.5614 42.1123 29.5958 41.8711L29.7334 41.046L29.8366 40.3933L30.7649 34.754H32.8966L32.6559 35.9918H33.7561L33.4809 38.0204H32.3807L31.7964 41.4587C31.762 41.5963 31.762 41.6999 31.762 41.8027C31.762 42.2154 31.9683 42.3874 32.4839 42.3874C32.7246 42.3874 32.9306 42.3874 33.0682 42.3186L32.7934 44.14ZM24.5073 38.6047C24.5073 39.6366 24.9884 40.3581 26.1231 40.9084C27.0169 41.3212 27.1545 41.4583 27.1545 41.8023C27.1545 42.3182 26.7762 42.5586 25.9167 42.5586C25.2636 42.5586 24.6788 42.4558 23.9913 42.2494L23.6818 44.14L23.785 44.1748L24.1633 44.2436C24.3005 44.2776 24.4729 44.3124 24.7476 44.3124C25.2288 44.3812 25.6415 44.3812 25.9167 44.3812C28.1856 44.3812 29.2519 43.5213 29.2519 41.6307C29.2519 40.4957 28.8051 39.8421 27.7393 39.327C26.811 38.9142 26.7078 38.8115 26.7078 38.4331C26.7078 37.9864 27.0861 37.78 27.7737 37.78C28.1864 37.78 28.7707 37.8144 29.3211 37.8832L29.6302 35.9922C29.0803 35.889 28.2208 35.8202 27.7393 35.8202C25.3324 35.8198 24.4729 37.0921 24.5073 38.6047ZM68.6542 44.2436H66.6252L66.7288 43.4525C66.1441 44.0712 65.525 44.3464 64.7339 44.3464C63.1525 44.3464 62.121 43.0062 62.121 40.9432C62.121 38.1923 63.7372 35.8542 65.6278 35.8542C66.4877 35.8542 67.1064 36.2326 67.6915 36.9889L68.1726 34.1008H70.3044L68.6542 44.2436ZM65.4906 42.3182C66.4881 42.3182 67.1756 41.1492 67.1756 39.533C67.1756 38.4671 66.7968 37.9168 66.0405 37.9168C65.0778 37.9168 64.3563 39.0514 64.3563 40.6676C64.3563 41.7683 64.7343 42.3182 65.4906 42.3182ZM39.3946 44.0712C38.6379 44.3124 37.9504 44.4152 37.1597 44.4152C34.7528 44.4152 33.5149 43.1433 33.5149 40.702C33.5149 37.8828 35.0967 35.7854 37.2629 35.7854C39.0507 35.7854 40.1849 36.9545 40.1849 38.7767C40.1849 39.3958 40.1161 39.9805 39.9097 40.8396H35.6471C35.6127 40.9432 35.6127 41.012 35.6127 41.0808C35.6127 42.0435 36.2662 42.5246 37.5037 42.5246C38.2944 42.5246 38.9819 42.387 39.7386 42.0087L39.3946 44.0712ZM38.1912 39.1546V38.7423C38.1912 38.0548 37.8128 37.6764 37.1597 37.6764C36.4722 37.6764 35.9906 38.1923 35.7843 39.1546H38.1912ZM16.2899 44.2436H14.1581L15.396 36.4386L12.6111 44.2436H11.1325L10.9605 36.5073L9.65431 44.2436H7.66016L9.34475 34.1008H12.4392L12.5423 40.3929L14.6049 34.1008H17.9745L16.2899 44.2436ZM21.6192 40.5644C21.4128 40.5644 21.3097 40.5305 21.1377 40.5305C19.9342 40.5305 19.3155 40.9772 19.3155 41.8023C19.3155 42.3182 19.5907 42.6274 20.0718 42.6274C20.9657 42.6274 21.5848 41.8023 21.6192 40.5644ZM23.2006 44.2436H21.4124L21.4468 43.3837C20.8965 44.0712 20.1746 44.3812 19.1775 44.3812C18.0085 44.3812 17.2178 43.4873 17.2178 42.1463C17.2178 40.1181 18.5928 38.9491 20.9997 38.9491C21.2405 38.9491 21.55 38.9834 21.8936 39.0174C21.9624 38.7427 21.9624 38.6395 21.9624 38.5019C21.9624 37.952 21.584 37.7456 20.5869 37.7456C19.9682 37.7456 19.2803 37.8144 18.7992 37.952L18.4896 38.0552L18.2832 38.0896L18.5928 36.233C19.6587 35.9234 20.3806 35.8202 21.1717 35.8202C23.0282 35.8202 24.0253 36.6453 24.0253 38.2267C24.0253 38.6395 23.9909 38.949 23.8533 39.8773L23.3718 42.8002L23.303 43.3153L23.2686 43.7281L23.2342 44.038L23.2006 44.2436ZM55.6578 40.5644C55.4166 40.5644 55.3138 40.5305 55.1767 40.5305C53.9388 40.5305 53.3193 40.9772 53.3193 41.8023C53.3193 42.3182 53.6292 42.6274 54.1104 42.6274C54.9703 42.6274 55.623 41.8023 55.6578 40.5644ZM57.2392 44.2436H55.4514L55.4854 43.3837C54.9355 44.0712 54.2136 44.3812 53.2165 44.3812C52.0474 44.3812 51.2563 43.4873 51.2563 42.1463C51.2563 40.1181 52.6314 38.9491 55.0383 38.9491C55.2794 38.9491 55.589 38.9834 55.8982 39.0174C55.967 38.7427 56.0018 38.6395 56.0018 38.5019C56.0018 37.952 55.623 37.7456 54.6267 37.7456C54.0072 37.7456 53.2857 37.8144 52.8042 37.952L52.529 38.0552L52.3226 38.0896L52.6318 36.233C53.698 35.9234 54.4196 35.8202 55.2107 35.8202C57.0672 35.8202 58.0299 36.6453 58.0299 38.2267C58.0299 38.6395 58.0299 38.949 57.8583 39.8773L57.4112 42.8002L57.3424 43.3153L57.2736 43.7281L57.2396 44.038V44.2436H57.2392ZM63.0153 35.923H62.8089C62.0874 35.923 61.6747 36.267 61.0211 37.2637L61.2275 35.9914H59.2673L57.9607 44.2432H60.0924C60.8835 39.189 61.0899 38.3295 62.1214 38.3295H62.259C62.4654 37.3324 62.7401 36.6101 63.0841 35.957L63.0153 35.923Z" fill="white"/>
</g>
<defs>
<clipPath id="clip0_423_292">
<rect width="78" height="78" fill="white"/>
</clipPath>
</defs>
</svg>
