<svg width="78" height="78" viewBox="0 0 78 78" fill="none" xmlns="http://www.w3.org/2000/svg">
<path d="M34.635 49.294H29.2786L32.6263 28.7203H37.9833L34.635 49.294ZM24.7725 28.7203L19.6659 42.871L19.0616 39.8238L19.0622 39.8249L17.2598 30.5727C17.2598 30.5727 17.0419 28.7203 14.7189 28.7203H6.27679L6.17773 29.0686C6.17773 29.0686 8.75936 29.6058 11.7807 31.4202L16.4343 49.2945H22.0153L30.5372 28.7203H24.7725ZM66.9034 49.294H71.8218L67.5335 28.7197H63.2277C61.2394 28.7197 60.7551 30.253 60.7551 30.253L52.7664 49.294H58.3501L59.4667 46.238H66.276L66.9034 49.294ZM61.0093 42.0164L63.8237 34.3172L65.4071 42.0164H61.0093ZM53.1852 33.6678L53.9496 29.2497C53.9496 29.2497 51.5909 28.3527 49.132 28.3527C46.4739 28.3527 40.1615 29.5144 40.1615 35.1636C40.1615 40.4787 47.5701 40.5448 47.5701 43.3366C47.5701 46.1285 40.9248 45.6282 38.7317 43.8677L37.9354 48.4872C37.9354 48.4872 40.3272 49.649 43.9814 49.649C47.6367 49.649 53.1511 47.7563 53.1511 42.6052C53.1511 37.256 45.6759 36.7579 45.6759 34.4322C45.6764 32.1059 50.8931 32.4048 53.1852 33.6678Z" fill="#2566AF"/>
<path d="M19.0622 39.8244L17.2598 30.5722C17.2598 30.5722 17.0419 28.7197 14.7189 28.7197H6.27679L6.17773 29.0681C6.17773 29.0681 10.2354 29.909 14.1273 33.0597C17.8487 36.0711 19.0622 39.8244 19.0622 39.8244Z" fill="#E6A540"/>
</svg>
